<?xml version="1.0" encoding="utf-8"?>
<!-- Generator: Adobe Illustrator 18.0.0, SVG Export Plug-In . SVG Version: 6.00 Build 0)  -->
<!DOCTYPE svg PUBLIC "-//W3C//DTD SVG 1.1//EN" "http://www.w3.org/Graphics/SVG/1.1/DTD/svg11.dtd">
<svg version="1.1" id="Layer_1" xmlns="http://www.w3.org/2000/svg" xmlns:xlink="http://www.w3.org/1999/xlink" x="0px" y="0px"
	 viewBox="0 0 481 230.2" enable-background="new 0 0 481 230.2" xml:space="preserve">
<g>
	<path fill="#FFFFFF" d="M122.2,71.3c-0.2,0-0.3-0.1-0.4-0.2c-0.2-0.2-0.1-0.5,0.1-0.7l4-3c0.2-0.2,0.5-0.1,0.7,0.1
		c0.2,0.2,0.1,0.5-0.1,0.7l-4,3C122.4,71.3,122.3,71.3,122.2,71.3z M120.5,70.2c-0.3,0-0.5-0.2-0.5-0.5v-5c0-0.3,0.2-0.5,0.5-0.5
		s0.5,0.2,0.5,0.5v5C121,70,120.8,70.2,120.5,70.2z M128.7,66.5c-0.2,0-0.3-0.1-0.4-0.2c-0.2-0.2-0.1-0.5,0.1-0.7l2.6-2h2
		c0.3,0,0.5,0.2,0.5,0.5c0,0.3-0.2,0.5-0.5,0.5h-1.7l-2.4,1.8C128.9,66.5,128.8,66.5,128.7,66.5z M196.6,64.6H192
		c-0.3,0-0.5-0.2-0.5-0.5c0-0.3,0.2-0.5,0.5-0.5h4.5c0.1,0,0.3,0,0.4,0c0.3,0,0.5,0.2,0.5,0.4c0,0.3-0.2,0.5-0.4,0.5
		C196.9,64.6,196.7,64.6,196.6,64.6z M189,64.6h-5c-0.3,0-0.5-0.2-0.5-0.5c0-0.3,0.2-0.5,0.5-0.5h5c0.3,0,0.5,0.2,0.5,0.5
		C189.5,64.4,189.3,64.6,189,64.6z M181,64.6h-5c-0.3,0-0.5-0.2-0.5-0.5c0-0.3,0.2-0.5,0.5-0.5h5c0.3,0,0.5,0.2,0.5,0.5
		C181.5,64.4,181.3,64.6,181,64.6z M173,64.6h-5c-0.3,0-0.5-0.2-0.5-0.5c0-0.3,0.2-0.5,0.5-0.5h5c0.3,0,0.5,0.2,0.5,0.5
		C173.5,64.4,173.3,64.6,173,64.6z M165,64.6h-5c-0.3,0-0.5-0.2-0.5-0.5c0-0.3,0.2-0.5,0.5-0.5h5c0.3,0,0.5,0.2,0.5,0.5
		C165.5,64.4,165.3,64.6,165,64.6z M157,64.6h-5c-0.3,0-0.5-0.2-0.5-0.5c0-0.3,0.2-0.5,0.5-0.5h5c0.3,0,0.5,0.2,0.5,0.5
		C157.5,64.4,157.3,64.6,157,64.6z M149,64.6h-5c-0.3,0-0.5-0.2-0.5-0.5c0-0.3,0.2-0.5,0.5-0.5h5c0.3,0,0.5,0.2,0.5,0.5
		C149.5,64.4,149.3,64.6,149,64.6z M141,64.6h-5c-0.3,0-0.5-0.2-0.5-0.5c0-0.3,0.2-0.5,0.5-0.5h5c0.3,0,0.5,0.2,0.5,0.5
		C141.5,64.4,141.3,64.6,141,64.6z M118.1,64.6h-2c-1.1,0-2.2-0.4-3.1-1.1c-0.2-0.2-0.2-0.5-0.1-0.7c0.2-0.2,0.5-0.2,0.7-0.1
		c0.7,0.6,1.5,0.9,2.4,0.9h2c0.3,0,0.5,0.2,0.5,0.5C118.6,64.4,118.4,64.6,118.1,64.6z M199.7,63.3c-0.1,0-0.2,0-0.3-0.1
		c-0.2-0.2-0.2-0.5,0-0.7c0.7-0.7,1-1.6,1-2.6v-1.8c0-0.3,0.2-0.5,0.5-0.5s0.5,0.2,0.5,0.5v1.8c0,1.2-0.5,2.4-1.3,3.3
		C199.9,63.3,199.8,63.3,199.7,63.3z M111.9,61.1c-0.2,0-0.5-0.2-0.5-0.4c0-0.3-0.1-0.5-0.1-0.8v-4.3c0-0.3,0.2-0.5,0.5-0.5
		s0.5,0.2,0.5,0.5v4.3c0,0.2,0,0.4,0.1,0.6C112.4,60.8,112.2,61,111.9,61.1C111.9,61.1,111.9,61.1,111.9,61.1z M200.8,55.6
		c-0.3,0-0.5-0.2-0.5-0.5v-5c0-0.3,0.2-0.5,0.5-0.5s0.5,0.2,0.5,0.5v5C201.3,55.4,201.1,55.6,200.8,55.6z M111.8,53.1
		c-0.3,0-0.5-0.2-0.5-0.5v-5c0-0.3,0.2-0.5,0.5-0.5s0.5,0.2,0.5,0.5v5C112.3,52.9,112.1,53.1,111.8,53.1z M200.8,47.6
		c-0.3,0-0.5-0.2-0.5-0.5v-5c0-0.3,0.2-0.5,0.5-0.5s0.5,0.2,0.5,0.5v5C201.3,47.4,201.1,47.6,200.8,47.6z M111.8,45.1
		c-0.3,0-0.5-0.2-0.5-0.5v-5c0-0.3,0.2-0.5,0.5-0.5s0.5,0.2,0.5,0.5v5C112.3,44.9,112.1,45.1,111.8,45.1z M200.8,39.6
		c-0.3,0-0.5-0.2-0.5-0.5v-5c0-0.3,0.2-0.5,0.5-0.5s0.5,0.2,0.5,0.5v5C201.3,39.4,201.1,39.6,200.8,39.6z M111.8,37.1
		c-0.3,0-0.5-0.2-0.5-0.5v-5c0-0.3,0.2-0.5,0.5-0.5s0.5,0.2,0.5,0.5v5C112.3,36.9,112.1,37.1,111.8,37.1z M200.8,31.6
		c-0.3,0-0.5-0.2-0.5-0.5v-5c0-0.3,0.2-0.5,0.5-0.5s0.5,0.2,0.5,0.5v5C201.3,31.4,201.1,31.6,200.8,31.6z M111.8,29.1
		c-0.3,0-0.5-0.2-0.5-0.5v-5c0-0.3,0.2-0.5,0.5-0.5s0.5,0.2,0.5,0.5v5C112.3,28.9,112.1,29.1,111.8,29.1z M200.8,23.6
		c-0.3,0-0.5-0.2-0.5-0.5v-5c0-0.3,0.2-0.5,0.5-0.5s0.5,0.2,0.5,0.5v5C201.3,23.4,201.1,23.6,200.8,23.6z M111.8,21.1
		c-0.3,0-0.5-0.2-0.5-0.5v-5c0-0.3,0.2-0.5,0.5-0.5s0.5,0.2,0.5,0.5v5C112.3,20.9,112.1,21.1,111.8,21.1z M200.8,15.6
		c-0.3,0-0.5-0.2-0.5-0.5v-0.4c0-1.4-0.8-2.7-2-3.3c-0.2-0.1-0.3-0.4-0.2-0.7c0.1-0.2,0.4-0.3,0.7-0.2c1.6,0.8,2.6,2.4,2.6,4.2v0.4
		C201.3,15.4,201.1,15.6,200.8,15.6z M112.4,13.2c-0.1,0-0.2,0-0.2-0.1c-0.2-0.1-0.3-0.4-0.2-0.7c0.8-1.5,2.4-2.4,4.1-2.4h0.5
		c0.3,0,0.5,0.2,0.5,0.5s-0.2,0.5-0.5,0.5h-0.5c-1.4,0-2.6,0.7-3.3,1.9C112.7,13.1,112.5,13.2,112.4,13.2z M196.6,11h-5
		c-0.3,0-0.5-0.2-0.5-0.5s0.2-0.5,0.5-0.5h5c0.3,0,0.5,0.2,0.5,0.5S196.9,11,196.6,11z M188.6,11h-5c-0.3,0-0.5-0.2-0.5-0.5
		s0.2-0.5,0.5-0.5h5c0.3,0,0.5,0.2,0.5,0.5S188.9,11,188.6,11z M180.6,11h-5c-0.3,0-0.5-0.2-0.5-0.5s0.2-0.5,0.5-0.5h5
		c0.3,0,0.5,0.2,0.5,0.5S180.9,11,180.6,11z M172.6,11h-5c-0.3,0-0.5-0.2-0.5-0.5s0.2-0.5,0.5-0.5h5c0.3,0,0.5,0.2,0.5,0.5
		S172.9,11,172.6,11z M164.6,11h-5c-0.3,0-0.5-0.2-0.5-0.5s0.2-0.5,0.5-0.5h5c0.3,0,0.5,0.2,0.5,0.5S164.9,11,164.6,11z M156.6,11
		h-5c-0.3,0-0.5-0.2-0.5-0.5s0.2-0.5,0.5-0.5h5c0.3,0,0.5,0.2,0.5,0.5S156.9,11,156.6,11z M148.6,11h-5c-0.3,0-0.5-0.2-0.5-0.5
		s0.2-0.5,0.5-0.5h5c0.3,0,0.5,0.2,0.5,0.5S148.9,11,148.6,11z M140.6,11h-5c-0.3,0-0.5-0.2-0.5-0.5s0.2-0.5,0.5-0.5h5
		c0.3,0,0.5,0.2,0.5,0.5S140.9,11,140.6,11z M132.6,11h-5c-0.3,0-0.5-0.2-0.5-0.5s0.2-0.5,0.5-0.5h5c0.3,0,0.5,0.2,0.5,0.5
		S132.9,11,132.6,11z M124.6,11h-5c-0.3,0-0.5-0.2-0.5-0.5s0.2-0.5,0.5-0.5h5c0.3,0,0.5,0.2,0.5,0.5S124.9,11,124.6,11z"/>
	<g>
		<circle fill="#2F91C7" cx="247.1" cy="83.1" r="65.6"/>
		<path fill="#FFFFFF" d="M247.1,17.5c36.2,0,65.6,29.4,65.6,65.6s-29.4,65.6-65.6,65.6s-65.6-29.4-65.6-65.6S210.8,17.5,247.1,17.5
			 M247.1,12.5c-38.9,0-70.6,31.7-70.6,70.6s31.7,70.6,70.6,70.6s70.6-31.7,70.6-70.6S286,12.5,247.1,12.5L247.1,12.5z"/>
	</g>
	<g>
		<g>
			<path fill="#F3B400" d="M244.4,97.3c-2.4,0-4.2-1.8-4.5-4.2l-1-9c-0.4-2.8,1.3-4.9,4.1-5.2c9.8-0.9,15.2-4.7,15.2-11.3v-0.2
				c0-5.8-4.5-9.9-12-9.9c-5.5,0-10,2-14.2,5.7c-1,0.8-2.4,1.5-3.9,1.5c-3.2,0-5.8-2.6-5.8-5.7c0-1.6,0.6-3.2,2.1-4.5
				c5.5-5.2,12.5-8.7,22.1-8.7C261.1,45.9,271,54,271,67v0.2c0,13.1-9.5,19.1-21.1,21.1l-0.4,4.8c-0.4,2.3-2.1,4.2-4.5,4.2H244.4z
				 M244.4,104.9c4.3,0,7.4,3.1,7.4,7.2v1c0,4.1-3.1,7.2-7.4,7.2s-7.4-3.1-7.4-7.2v-1C237,108,240.1,104.9,244.4,104.9z"/>
			<path fill="#FFFFFF" d="M244.4,122.1c-5.2,0-9.2-3.9-9.2-9v-1c0-5.1,4-9,9.2-9c5.2,0,9.2,3.9,9.2,9v1
				C253.6,118.3,249.6,122.1,244.4,122.1z M244.4,106.7c-3.2,0-5.6,2.3-5.6,5.4v1c0,3.1,2.4,5.4,5.6,5.4s5.6-2.3,5.6-5.4v-1
				C250,109,247.7,106.7,244.4,106.7z M245,99.1h-0.6c-3.2,0-5.8-2.4-6.3-5.7l-1-9c-0.3-1.8,0.1-3.5,1.2-4.8c1-1.3,2.6-2.2,4.5-2.4
				c9.1-0.9,13.6-4.1,13.6-9.5v-0.2c0-5-3.9-8.1-10.2-8.1c-4.9,0-9,1.7-13,5.3l-0.1,0.1c-1.5,1.2-3.3,1.9-5,1.9
				c-4.2,0-7.6-3.4-7.6-7.5c0-2.2,1-4.4,2.7-5.8c6.5-6.1,14.1-9.1,23.3-9.1c15.7,0,26.3,9.2,26.3,23v0.2c0,12-7.3,19.8-21.2,22.6
				l-0.3,3.6C250.7,96.8,248.1,99.1,245,99.1z M246.2,55.8c8.2,0,13.8,4.7,13.8,11.7v0.2c0,5.2-2.9,11.7-16.8,13
				c-0.9,0.1-1.6,0.4-2,1c-0.4,0.5-0.6,1.3-0.4,2.2l1.1,9c0.2,1.6,1.3,2.6,2.7,2.6h0.6c1.6,0,2.5-1.4,2.7-2.6l0.5-6.1l1.4-0.2
				c13-2.2,19.6-8.7,19.6-19.3V67c0-11.8-8.9-19.4-22.7-19.4c-8.2,0-15.1,2.7-20.9,8.2c-1.3,1.1-1.5,2.5-1.5,3.2
				c0,2.2,1.8,3.9,4,3.9c1.2,0,2.2-0.6,2.7-1C235.5,57.7,240.4,55.8,246.2,55.8z"/>
		</g>
	</g>
	<g>
		<circle fill="#2F91C7" cx="226.3" cy="166.6" r="5.6"/>
		<circle fill="#2F91C7" cx="246.6" cy="166.6" r="5.6"/>
		<circle fill="#2F91C7" cx="266.9" cy="166.6" r="5.6"/>
	</g>
	<g>
		<g>
			<path fill="#FF5F58" d="M101.9,156.4c0.7-0.3,1.5,0.1,1.8,0.8l1.3,2.6c0.4,0.8,0.1,1.6-0.7,2c-2.9,1.3-4.1,3.1-3.4,5.1l0,0.1
				c0.6,1.8,2.4,2.5,4.7,1.7c1.7-0.6,2.8-1.7,3.7-3.3c0.2-0.4,0.6-0.7,1-0.9c1-0.3,2.1,0.2,2.4,1.1c0.2,0.5,0.2,1-0.2,1.6
				c-1.1,2.2-2.9,4-5.8,5c-4.4,1.6-8.3,0.2-9.7-3.8l0-0.1c-1.4-4,0.8-6.8,4.1-8.7l-0.4-1.5c-0.1-0.7,0.2-1.5,0.9-1.7L101.9,156.4z
				 M101.1,154.1c-1.3,0.5-2.6-0.2-3-1.4l-0.1-0.3c-0.4-1.2,0.2-2.5,1.5-3c1.3-0.5,2.6,0.2,3,1.4l0.1,0.3
				C103,152.3,102.4,153.6,101.1,154.1z"/>
		</g>
	</g>
	<g>
		<path fill="#74BD27" d="M313,168.2c-1.1,0-2.2-0.5-3.1-1.3c-0.9-0.8-1.4-1.9-1.4-3.1s0.4-2.2,1.2-3.1l0.3-0.3
			c0.8-0.9,1.9-1.3,3.1-1.3c1.1,0,2.2,0.5,3.1,1.3c0.9,0.8,1.4,1.9,1.4,3c0,1.1-0.4,2.2-1.2,3.1l-0.3,0.3
			C315.3,167.7,314.2,168.2,313,168.2z M313.2,161.1c-0.6,0-1.2,0.3-1.6,0.7l-0.3,0.3c-0.4,0.5-0.7,1-0.6,1.6c0,0.6,0.3,1.2,0.8,1.7
			c1,0.9,2.4,0.9,3.3,0l0.3-0.3c0.4-0.5,0.7-1,0.6-1.6c0-0.6-0.3-1.2-0.8-1.7C314.3,161.4,313.8,161.1,313.2,161.1z M329.8,161
			c-2.3,0-4.7-0.8-7.2-2.4l-1.1,1c-1.4,1.1-3.1,0.9-4.1-0.1l-0.2-0.2c-1.1-1.1-1.2-2.8-0.3-4.1l2.5-3.3c1-1.4,3-1.7,4.4-0.6
			c3.2,2.5,5.6,3,7.2,1.2c0.8-0.8,1.1-1.7,1-2.6c-0.1-1-0.7-2.1-1.7-3.1c-1.6-1.5-3.4-2.2-5.8-2.3c-1-0.1-1.8-0.4-2.4-1
			c-0.7-0.7-1.1-1.6-1.1-2.6c0-1,0.3-1.9,1-2.6c0.7-0.8,1.8-1.2,2.9-1.1c4.1,0,7.6,1.5,10.7,4.4c5.3,5,5.8,11.5,1.4,16.1
			C334.9,159.9,332.5,161,329.8,161z M322.5,156.1l0.6,0.4c4.8,3.3,9,3.3,12.3-0.2c3.7-3.9,3.2-9.1-1.3-13.4
			c-2.7-2.6-5.7-3.8-9.3-3.8l-0.2,0c-0.6,0-1,0.3-1.2,0.5c-0.3,0.3-0.4,0.7-0.4,1.2c0,0.4,0.2,0.9,0.5,1.2c0.4,0.3,0.9,0.4,1.1,0.5
			c2.9,0.1,5.1,1,7.1,2.9c1.4,1.3,2.2,2.8,2.3,4.3c0.2,1.5-0.4,3-1.5,4.2c-2.5,2.6-5.9,2.3-10-0.9c-0.2-0.2-0.5-0.3-0.7-0.3
			c-0.4,0-0.7,0.3-0.8,0.5l-2.5,3.3c-0.3,0.4-0.4,1,0.1,1.5l0.2,0.2c0.4,0.4,1,0.3,1.5,0L322.5,156.1z"/>
	</g>
	<g>
		<path fill="#FF5F58" d="M466.4,143.9c-0.5,0.6-1.3,0.6-2,0.1l-2.3-1.7c-0.8-0.5-0.9-1.4-0.3-2.1c1.9-2.5,2.2-4.6,0.7-6.1l0,0
			c-1.4-1.3-3.3-1.1-5,0.7c-1.2,1.3-1.7,2.8-1.8,4.6c0,0.4-0.2,0.9-0.5,1.2c-0.7,0.8-1.9,0.8-2.6,0.1c-0.4-0.3-0.6-0.9-0.6-1.5
			c0-2.4,0.7-4.9,2.8-7.1c3.2-3.4,7.3-4,10.4-1.1l0,0c3.1,2.9,2.4,6.4,0.3,9.6l1,1.2c0.4,0.6,0.5,1.4,0,2L466.4,143.9z M468.2,145.5
			c0.9-1,2.4-1.1,3.3-0.2l0.2,0.2c1,0.9,1,2.3,0.1,3.3c-0.9,1-2.4,1.1-3.3,0.2l-0.2-0.2C467.3,148,467.2,146.5,468.2,145.5z"/>
	</g>
	<g>
		<g>
			<path fill="#E5E6E7" d="M159.6,166.9c-0.5,0.6-1.3,0.6-2,0.1l-2.3-1.7c-0.8-0.5-0.9-1.4-0.3-2.1c1.9-2.5,2.2-4.6,0.7-6.1l0,0
				c-1.4-1.3-3.3-1.1-5,0.7c-1.2,1.3-1.7,2.8-1.8,4.6c0,0.4-0.2,0.9-0.5,1.2c-0.7,0.8-1.9,0.8-2.6,0.1c-0.4-0.3-0.6-0.9-0.6-1.5
				c0-2.4,0.7-4.9,2.8-7.1c3.2-3.4,7.3-4,10.4-1.1l0,0c3.1,2.9,2.4,6.4,0.3,9.6l1,1.2c0.4,0.6,0.5,1.4,0,2L159.6,166.9z
				 M161.4,168.5c0.9-1,2.4-1.1,3.3-0.2l0.2,0.2c1,0.9,1,2.3,0.1,3.3c-0.9,1-2.4,1.1-3.3,0.2l-0.2-0.2
				C160.5,171,160.5,169.5,161.4,168.5z"/>
		</g>
	</g>
	<g>
		<path fill="#74BD27" d="M138.9,124.5c-0.8,0-1.6-0.3-2.2-0.9l-5.7-5.9c-1.2-1.2-1.1-3.1,0.1-4.2c1.2-1.2,3.1-1.1,4.2,0.1l3.4,3.5
			l12.3-14.7c1.1-1.3,3-1.4,4.2-0.4c1.3,1.1,1.4,3,0.4,4.2l-14.4,17.3c-0.5,0.7-1.3,1-2.2,1.1C139,124.5,139,124.5,138.9,124.5z"/>
	</g>
	<g>
		<g>
			<path fill="#FFFFFF" d="M60.6,50.2c-0.8,0-1.6-0.3-2.2-0.9l-5.7-5.9c-1.2-1.2-1.1-3.1,0.1-4.2C54,38,55.9,38,57,39.2l3.4,3.5
				L72.7,28c1.1-1.3,3-1.4,4.2-0.4c1.3,1.1,1.4,3,0.4,4.2L62.9,49.1c-0.5,0.7-1.3,1-2.2,1.1C60.7,50.2,60.6,50.2,60.6,50.2z"/>
		</g>
	</g>
	<g>
		<g>
			<path fill="#FF8100" d="M214.5,215.4c-0.8,0-1.6-0.3-2.2-0.9l-5.7-5.9c-1.2-1.2-1.1-3.1,0.1-4.2c1.2-1.2,3.1-1.1,4.2,0.1l3.4,3.5
				l12.3-14.7c1.1-1.3,3-1.4,4.2-0.4c1.3,1.1,1.4,3,0.4,4.2l-14.4,17.3c-0.5,0.7-1.3,1-2.2,1.1C214.6,215.4,214.6,215.4,214.5,215.4
				z"/>
		</g>
	</g>
	<g>
		<path fill="#1A6AB3" d="M408,114.6c-1.6,0-3.2-0.7-4.3-1.8l-9.4-9.7c-1.1-1.1-1.7-2.6-1.7-4.2c0-1.6,0.7-3.1,1.8-4.2
			c1.1-1.1,2.6-1.7,4.1-1.7c1.6,0,3.1,0.6,4.3,1.8l4.8,5l19.5-23.4c1.1-1.4,2.8-2.1,4.6-2.1c1.4,0,2.7,0.5,3.8,1.4
			c2.5,2.1,2.9,5.8,0.8,8.4l-23.7,28.5c-1.1,1.3-2.7,2.1-4.3,2.1L408,114.6z M398.6,95c-1,0-2,0.4-2.7,1.1c-0.8,0.7-1.2,1.7-1.2,2.8
			c0,1.1,0.4,2,1.1,2.8l9.4,9.7c0.7,0.8,1.8,1.2,2.8,1.2l0.1,0c1.1,0,2.2-0.6,2.9-1.4l23.7-28.5c1.4-1.7,1.2-4.2-0.5-5.5
			c-0.7-0.6-1.6-0.9-2.5-0.9c-1.2,0-2.3,0.5-3,1.4l-20.9,25.1l-6.4-6.6C400.7,95.4,399.7,95,398.6,95z"/>
	</g>
	<g>
		<path fill="#FFFFFF" d="M15.4,73.6h84.3c2.8,0,5.1,2.3,5.1,5.1v30.9c0,2.8-2.3,5.1-5.1,5.1h-5.3v7.5c0,0.8-1,1.3-1.6,0.8
			l-11.1-8.3H15.4c-2.8,0-5.1-2.3-5.1-5.1V78.7C10.3,75.9,12.6,73.6,15.4,73.6z"/>
		<path fill="#E5E6E7" d="M93.3,124.1c-0.4,0-0.9-0.1-1.2-0.4l-10.8-8.1H15.4c-3.4,0-6.1-2.7-6.1-6.1V78.7c0-3.4,2.7-6.1,6.1-6.1
			h84.2c3.4,0,6.1,2.7,6.1,6.1v30.9c0,3.4-2.7,6.1-6.1,6.1h-4.3v6.5C95.4,123.2,94.4,124.1,93.3,124.1z M15.4,74.6
			c-2.3,0-4.1,1.8-4.1,4.1v30.9c0,2.2,1.8,4.1,4.1,4.1h66.6l11.4,8.5c0,0,0,0,0,0v-8.5h6.3c2.2,0,4.1-1.8,4.1-4.1V78.7
			c0-2.2-1.8-4.1-4.1-4.1H15.4z"/>
	</g>
	<g>
		<path fill="#FFFFFF" d="M376.4,181.2h40.5c2.3,0,4.3-1.9,4.3-4.3v-25.8c0-2.3-1.9-4.3-4.3-4.3h-4.4v-6.2c0-0.7-0.8-1.1-1.4-0.7
			l-9.3,6.9h-25.4c-2.3,0-4.3,1.9-4.3,4.3v25.8C372.2,179.2,374.1,181.2,376.4,181.2z"/>
		<path fill="#E5E6E7" d="M416.9,182.2h-40.5c-2.9,0-5.3-2.4-5.3-5.3v-25.8c0-2.9,2.4-5.3,5.3-5.3h25.1l9-6.7
			c0.3-0.2,0.7-0.4,1.1-0.4c1,0,1.9,0.8,1.9,1.9v5.2h3.4c2.9,0,5.3,2.4,5.3,5.3v25.8C422.2,179.8,419.8,182.2,416.9,182.2z
			 M376.4,147.8c-1.8,0-3.3,1.5-3.3,3.3v25.8c0,1.8,1.5,3.3,3.3,3.3h40.5c1.8,0,3.3-1.5,3.3-3.3v-25.8c0-1.8-1.5-3.3-3.3-3.3h-5.4
			v-7l-9.3,7H376.4z"/>
	</g>
	<path fill="#E5E6E7" d="M261,220.8h-0.5c-0.3,0-0.5-0.2-0.5-0.5s0.2-0.5,0.5-0.5h0.5c1.4,0,2.6-0.7,3.3-1.9
		c0.1-0.2,0.4-0.3,0.7-0.2c0.2,0.1,0.3,0.4,0.2,0.7C264.3,219.9,262.7,220.8,261,220.8z M257.5,220.8h-5c-0.3,0-0.5-0.2-0.5-0.5
		s0.2-0.5,0.5-0.5h5c0.3,0,0.5,0.2,0.5,0.5S257.8,220.8,257.5,220.8z M249.5,220.8h-5c-0.3,0-0.5-0.2-0.5-0.5s0.2-0.5,0.5-0.5h5
		c0.3,0,0.5,0.2,0.5,0.5S249.8,220.8,249.5,220.8z M241.5,220.8h-5c-0.3,0-0.5-0.2-0.5-0.5s0.2-0.5,0.5-0.5h5c0.3,0,0.5,0.2,0.5,0.5
		S241.8,220.8,241.5,220.8z M233.5,220.8h-5c-0.3,0-0.5-0.2-0.5-0.5s0.2-0.5,0.5-0.5h5c0.3,0,0.5,0.2,0.5,0.5
		S233.8,220.8,233.5,220.8z M225.5,220.8h-5c-0.3,0-0.5-0.2-0.5-0.5s0.2-0.5,0.5-0.5h5c0.3,0,0.5,0.2,0.5,0.5
		S225.8,220.8,225.5,220.8z M217.5,220.8h-5c-0.3,0-0.5-0.2-0.5-0.5s0.2-0.5,0.5-0.5h5c0.3,0,0.5,0.2,0.5,0.5
		S217.8,220.8,217.5,220.8z M209.5,220.8h-5c-0.3,0-0.5-0.2-0.5-0.5s0.2-0.5,0.5-0.5h5c0.3,0,0.5,0.2,0.5,0.5
		S209.8,220.8,209.5,220.8z M201.5,220.8h-5c-0.3,0-0.5-0.2-0.5-0.5s0.2-0.5,0.5-0.5h5c0.3,0,0.5,0.2,0.5,0.5
		S201.8,220.8,201.5,220.8z M193.5,220.8h-5c-0.3,0-0.5-0.2-0.5-0.5s0.2-0.5,0.5-0.5h5c0.3,0,0.5,0.2,0.5,0.5
		S193.8,220.8,193.5,220.8z M185.5,220.8h-5c-0.3,0-0.5-0.2-0.5-0.5s0.2-0.5,0.5-0.5h5c0.3,0,0.5,0.2,0.5,0.5
		S185.8,220.8,185.5,220.8z M178.5,220.3c-0.1,0-0.2,0-0.2-0.1c-1.6-0.8-2.6-2.4-2.6-4.2v-0.4c0-0.3,0.2-0.5,0.5-0.5
		s0.5,0.2,0.5,0.5v0.4c0,1.4,0.8,2.7,2,3.3c0.2,0.1,0.3,0.4,0.2,0.7C178.9,220.2,178.7,220.3,178.5,220.3z M265.2,215.7
		c-0.3,0-0.5-0.2-0.5-0.5v-5c0-0.3,0.2-0.5,0.5-0.5s0.5,0.2,0.5,0.5v5C265.7,215.5,265.5,215.7,265.2,215.7z M176.2,213.2
		c-0.3,0-0.5-0.2-0.5-0.5v-5c0-0.3,0.2-0.5,0.5-0.5s0.5,0.2,0.5,0.5v5C176.7,213,176.5,213.2,176.2,213.2z M265.2,207.7
		c-0.3,0-0.5-0.2-0.5-0.5v-5c0-0.3,0.2-0.5,0.5-0.5s0.5,0.2,0.5,0.5v5C265.7,207.5,265.5,207.7,265.2,207.7z M176.2,205.2
		c-0.3,0-0.5-0.2-0.5-0.5v-5c0-0.3,0.2-0.5,0.5-0.5s0.5,0.2,0.5,0.5v5C176.7,205,176.5,205.2,176.2,205.2z M265.2,199.7
		c-0.3,0-0.5-0.2-0.5-0.5v-5c0-0.3,0.2-0.5,0.5-0.5s0.5,0.2,0.5,0.5v5C265.7,199.5,265.5,199.7,265.2,199.7z M176.2,197.2
		c-0.3,0-0.5-0.2-0.5-0.5v-5c0-0.3,0.2-0.5,0.5-0.5s0.5,0.2,0.5,0.5v5C176.7,197,176.5,197.2,176.2,197.2z M265.2,191.7
		c-0.3,0-0.5-0.2-0.5-0.5v-0.3c0-1.4-0.8-2.7-2.1-3.4c-0.2-0.1-0.3-0.4-0.2-0.7c0.1-0.2,0.4-0.3,0.7-0.2c1.6,0.8,2.6,2.4,2.6,4.2
		v0.3C265.7,191.5,265.5,191.7,265.2,191.7z M176.8,189.3c-0.1,0-0.2,0-0.2-0.1c-0.2-0.1-0.3-0.4-0.2-0.7c0.8-1.5,2.4-2.4,4.1-2.4
		h0.5c0.3,0,0.5,0.2,0.5,0.5s-0.2,0.5-0.5,0.5h-0.5c-1.3,0-2.6,0.7-3.2,1.9C177.2,189.2,177,189.3,176.8,189.3z M260,187.2h-3.9
		v-2.1c0-0.3,0.2-0.5,0.5-0.5s0.5,0.2,0.5,0.5v1.1h2.9c0.3,0,0.5,0.2,0.5,0.5S260.2,187.2,260,187.2z M245,187.2h-5
		c-0.3,0-0.5-0.2-0.5-0.5s0.2-0.5,0.5-0.5h5c0.3,0,0.5,0.2,0.5,0.5S245.3,187.2,245,187.2z M237,187.2h-5c-0.3,0-0.5-0.2-0.5-0.5
		s0.2-0.5,0.5-0.5h5c0.3,0,0.5,0.2,0.5,0.5S237.3,187.2,237,187.2z M229,187.2h-5c-0.3,0-0.5-0.2-0.5-0.5s0.2-0.5,0.5-0.5h5
		c0.3,0,0.5,0.2,0.5,0.5S229.3,187.2,229,187.2z M221,187.2h-5c-0.3,0-0.5-0.2-0.5-0.5s0.2-0.5,0.5-0.5h5c0.3,0,0.5,0.2,0.5,0.5
		S221.3,187.2,221,187.2z M213,187.2h-5c-0.3,0-0.5-0.2-0.5-0.5s0.2-0.5,0.5-0.5h5c0.3,0,0.5,0.2,0.5,0.5S213.3,187.2,213,187.2z
		 M205,187.2h-5c-0.3,0-0.5-0.2-0.5-0.5s0.2-0.5,0.5-0.5h5c0.3,0,0.5,0.2,0.5,0.5S205.3,187.2,205,187.2z M197,187.2h-5
		c-0.3,0-0.5-0.2-0.5-0.5s0.2-0.5,0.5-0.5h5c0.3,0,0.5,0.2,0.5,0.5S197.3,187.2,197,187.2z M189,187.2h-5c-0.3,0-0.5-0.2-0.5-0.5
		s0.2-0.5,0.5-0.5h5c0.3,0,0.5,0.2,0.5,0.5S189.3,187.2,189,187.2z M247.6,185.9c-0.2,0-0.3-0.1-0.4-0.2c-0.2-0.2-0.1-0.5,0.1-0.7
		l4-3c0.2-0.2,0.5-0.1,0.7,0.1c0.2,0.2,0.1,0.5-0.1,0.7l-4,3C247.8,185.9,247.7,185.9,247.6,185.9z M256.6,182.6
		c-0.3,0-0.5-0.2-0.5-0.5v-1.6c0-0.3-0.4-0.5-0.6-0.3l-1.2,0.9c-0.2,0.2-0.5,0.1-0.7-0.1c-0.2-0.2-0.1-0.5,0.1-0.7l1.2-0.9
		c0.2-0.2,0.5-0.3,0.8-0.3c0.8,0,1.4,0.6,1.4,1.4v1.6C257.1,182.3,256.9,182.6,256.6,182.6z"/>
	<path fill="#FFFFFF" d="M377.2,36.6c0-14.2-11.5-25.8-25.8-25.8c-14.2,0-25.8,11.5-25.8,25.8c0,14.2,11.5,25.8,25.8,25.8
		c5.7,0,11-1.9,15.3-5c0,0,10.4,8.9,10.4,8.9S377.2,37.5,377.2,36.6z"/>
	<path fill="#106580" d="M133.8,208.6c-0.8,0-1.5-0.7-1.5-1.5s0.7-1.5,1.5-1.5h0c0.8,0,1.5,0.7,1.5,1.5S134.6,208.6,133.8,208.6z
		 M128.5,208.6c-0.8,0-1.5-0.7-1.5-1.5s0.7-1.5,1.5-1.5h0c0.8,0,1.5,0.7,1.5,1.5S129.3,208.6,128.5,208.6z M139,208.5
		c-0.8,0-1.5-0.7-1.5-1.5s0.7-1.5,1.5-1.5h0c0.8,0,1.5,0.7,1.5,1.5S139.8,208.5,139,208.5z M123.3,208.3c-0.1,0-0.1,0-0.2,0
		c-0.7-0.1-1.3-0.7-1.3-1.5c0-0.8,0.7-1.5,1.5-1.5c0.2,0,0.3,0,0.5,0.1c0.8,0.3,1.2,1.1,0.9,1.9
		C124.5,207.9,123.9,208.3,123.3,208.3z M144.3,208.2c-0.8,0-1.5-0.7-1.5-1.5c0-0.8,0.6-1.4,1.3-1.5c0.7-0.1,1.4,0.3,1.6,1
		c0.3,0.8-0.2,1.6-0.9,1.9C144.6,208.2,144.4,208.2,144.3,208.2z M149.5,207.8c-0.8,0-1.5-0.7-1.5-1.5c0-0.8,0.6-1.4,1.3-1.5
		c0.7-0.1,1.4,0.3,1.6,1c0.3,0.8-0.2,1.6-0.9,1.9C149.8,207.8,149.7,207.8,149.5,207.8z M118,207.7c-0.1,0-0.1,0-0.2,0
		c-0.7-0.1-1.3-0.7-1.3-1.5c0-0.8,0.7-1.5,1.5-1.5c0.2,0,0.3,0,0.5,0.1c0.8,0.3,1.2,1.1,0.9,1.9C119.3,207.3,118.7,207.7,118,207.7z
		 M154.7,207.2c-0.8,0-1.5-0.7-1.5-1.5c0-0.8,0.6-1.4,1.3-1.5c0.7-0.1,1.4,0.3,1.6,1c0.3,0.8-0.2,1.6-0.9,1.9
		C155.1,207.2,154.9,207.2,154.7,207.2z M112.8,207c-0.1,0-0.3,0-0.4-0.1c-0.8-0.2-1.3-1.1-1-1.9c0.2-0.8,1-1.2,1.7-1.1
		c0.7,0.1,1.2,0.7,1.2,1.5C114.3,206.3,113.7,207,112.8,207z M107.7,205.9c-0.1,0-0.3,0-0.4-0.1c-0.8-0.2-1.3-1.1-1-1.9
		c0.2-0.8,1-1.2,1.7-1.1c0.7,0.1,1.2,0.7,1.2,1.5C109.2,205.3,108.5,205.9,107.7,205.9z M102.6,204.6c-0.2,0-0.3,0-0.5-0.1
		c-0.8-0.3-1.2-1.1-1-1.9c0.2-0.8,1.1-1.2,1.8-1c0,0,0.1,0,0.1,0c0.8,0.3,1.2,1.1,0.9,1.9C103.8,204.2,103.2,204.6,102.6,204.6z
		 M97.6,203c-0.1,0-0.3,0-0.4-0.1l0.8-2.9c0.8,0.2,1.3,1.1,1,1.9C98.9,202.6,98.3,203,97.6,203z M92.8,201c-0.2,0-0.4,0-0.6-0.1
		c-0.7-0.3-1.1-1.1-0.8-1.9c0.3-0.8,1.1-1.2,1.9-0.9c0.1,0,0.2,0.1,0.3,0.1c0.7,0.4,1,1.3,0.6,2C93.8,200.8,93.3,201,92.8,201z
		 M88,198.8c-0.2,0-0.3,0-0.5-0.1c-0.1,0-0.3-0.1-0.4-0.2c-0.7-0.5-0.9-1.4-0.4-2.1c0.4-0.6,1.3-0.9,2-0.5c0.6,0.3,1,1.1,0.7,1.8
		C89.3,198.4,88.7,198.8,88,198.8z M83.5,196.1c-0.2,0-0.4,0-0.6-0.1c-0.1,0-0.2-0.1-0.3-0.1c-0.7-0.5-0.9-1.4-0.4-2.1
		c0.4-0.7,1.3-0.9,2-0.5c0.6,0.4,0.9,1.2,0.7,1.9C84.7,195.8,84.1,196.1,83.5,196.1z M79.2,193.1c-0.3,0-0.6-0.1-0.8-0.3
		c0,0-0.1-0.1-0.1-0.1c-0.6-0.5-0.8-1.5-0.2-2.1c0.5-0.6,1.4-0.7,2.1-0.3c0.6,0.5,0.8,1.4,0.4,2C80.2,192.9,79.7,193.1,79.2,193.1z
		 M75.2,189.8c-0.4,0-0.8-0.1-1-0.4c-0.6-0.5-0.6-1.4-0.1-2c0.5-0.6,1.5-0.8,2.1-0.2c0.1,0.1,0.2,0.1,0.2,0.2
		c0.5,0.6,0.4,1.6-0.2,2.1C75.8,189.7,75.5,189.8,75.2,189.8z M71.4,186.1c-0.4,0-0.8-0.2-1.1-0.5c-0.5-0.5-0.6-1.4-0.1-2
		c0.5-0.6,1.5-0.8,2.1-0.2c0.1,0.1,0.2,0.2,0.3,0.3c0.5,0.7,0.3,1.6-0.4,2.1C72,186,71.7,186.1,71.4,186.1z M67.9,182.1
		c-0.3,0-0.7-0.1-0.9-0.3c-0.1-0.1-0.2-0.2-0.3-0.3c-0.5-0.7-0.3-1.6,0.4-2.1c0.6-0.4,1.5-0.3,2,0.3c0.5,0.5,0.5,1.3,0,1.9
		C68.8,182,68.4,182.1,67.9,182.1z M64.8,177.9c-0.5,0-0.9-0.2-1.2-0.6l2.4-1.8c0.5,0.7,0.4,1.6-0.3,2.1
		C65.5,177.8,65.2,177.9,64.8,177.9z M62.1,173.4c-0.5,0-1-0.2-1.2-0.7c0-0.1-0.1-0.1-0.1-0.2c-0.4-0.7-0.1-1.6,0.7-2
		c0.7-0.4,1.6-0.1,2,0.6c0.4,0.7,0.2,1.5-0.5,2C62.6,173.4,62.4,173.4,62.1,173.4z M59.6,168.8c-0.6,0-1.1-0.3-1.3-0.8
		c-0.4-0.7-0.1-1.6,0.7-2c0.7-0.4,1.6-0.1,2,0.7l0,0c0.4,0.7,0.1,1.6-0.7,2C60.1,168.7,59.9,168.8,59.6,168.8z M57.6,164
		c-0.6,0-1.2-0.4-1.4-1l2.8-1.1c0.3,0.8-0.1,1.6-0.9,1.9C57.9,163.9,57.7,164,57.6,164z M55.8,159c-0.7,0-1.2-0.4-1.4-1.1
		c-0.2-0.8,0.2-1.6,1-1.9c0.8-0.3,1.6,0.2,1.9,0.9c0,0,0,0.1,0,0.1c0.2,0.8-0.3,1.6-1.1,1.8C56.1,159,55.9,159,55.8,159z
		 M54.4,153.9c-0.7,0-1.3-0.5-1.5-1.2c-0.2-0.8,0.2-1.5,1-1.8c0.8-0.3,1.6,0.2,1.9,0.9c0,0.1,0.1,0.2,0.1,0.3
		c0.1,0.8-0.5,1.6-1.3,1.7C54.5,153.9,54.4,153.9,54.4,153.9z M53.3,148.8c-0.7,0-1.3-0.5-1.5-1.1c0,0,0-0.1,0-0.1
		c-0.1-0.8,0.4-1.6,1.2-1.7c0.8-0.1,1.6,0.4,1.7,1.2c0.2,0.8-0.3,1.6-1.1,1.8C53.5,148.8,53.4,148.8,53.3,148.8z M52.5,143.6
		c-0.8,0-1.4-0.6-1.5-1.4c-0.1-0.8,0.5-1.5,1.2-1.6c0.8-0.1,1.6,0.4,1.7,1.2c0,0.1,0,0.2,0,0.3C54,142.9,53.3,143.6,52.5,143.6z
		 M52,138.3c-0.7,0-1.4-0.6-1.5-1.3c0-0.1,0-0.1,0-0.2c0-0.8,0.7-1.5,1.5-1.5c0.8,0,1.5,0.6,1.5,1.4c0,0.8-0.5,1.5-1.3,1.6
		C52.1,138.3,52.1,138.3,52,138.3z M51.9,133c0,0-0.1,0-0.1,0c-0.8-0.1-1.4-0.8-1.4-1.6c0-0.8,0.7-1.5,1.5-1.5
		c0.8,0,1.5,0.7,1.5,1.5c0,0,0,0.1,0,0.1C53.4,132.4,52.7,133,51.9,133z"/>
	<path fill="#106580" d="M467.9,121.3c-0.8,0-1.5-0.7-1.5-1.5s0.7-1.5,1.5-1.5s1.5,0.7,1.5,1.5v0
		C469.4,120.6,468.7,121.3,467.9,121.3z M468,116c-0.8,0-1.5-0.7-1.5-1.5s0.7-1.5,1.5-1.5s1.5,0.7,1.5,1.5v0
		C469.5,115.4,468.9,116,468,116z M467.9,110.8c-0.8,0-1.5-0.7-1.5-1.5s0.7-1.5,1.5-1.5s1.5,0.7,1.5,1.5v0
		C469.4,110.1,468.8,110.8,467.9,110.8z M467.6,105.5c-0.6,0-1.2-0.4-1.4-1c-0.1-0.2-0.1-0.3-0.1-0.5c0-0.8,0.7-1.5,1.5-1.5
		c0.8,0,1.4,0.6,1.5,1.3c0.1,0.7-0.3,1.4-1,1.6C467.9,105.5,467.8,105.5,467.6,105.5z M467,100.3c-0.6,0-1.2-0.4-1.4-1
		c-0.1-0.2-0.1-0.3-0.1-0.5c0-0.8,0.7-1.5,1.5-1.5c0.8,0,1.4,0.6,1.5,1.3c0.1,0.7-0.3,1.4-1,1.6C467.4,100.3,467.2,100.3,467,100.3z
		 M466.2,95.2c-0.7,0-1.4-0.5-1.5-1.2c-0.1-0.8,0.3-1.5,1.1-1.7c0.8-0.2,1.6,0.2,1.9,1c0,0.1,0.1,0.3,0.1,0.4
		C467.7,94.5,467,95.2,466.2,95.2z M465,90c-0.6,0-1.2-0.4-1.4-1l2.8-0.9c0.3,0.8-0.2,1.6-0.9,1.9C465.3,90,465.1,90,465,90z
		 M463.4,85c-0.7,0-1.3-0.4-1.4-1.1c-0.2-0.8,0.2-1.6,1-1.8c0.8-0.2,1.6,0.2,1.9,1c0,0,0,0.1,0,0.1c0.2,0.8-0.2,1.6-1,1.9
		C463.7,85,463.6,85,463.4,85z M461.5,80.1c-0.5,0-1-0.3-1.3-0.8c0-0.1-0.1-0.2-0.1-0.3c-0.3-0.8,0.2-1.6,0.9-1.9
		c0.7-0.2,1.6,0.1,1.9,0.8c0.3,0.7,0,1.5-0.6,1.9C462,80.1,461.8,80.1,461.5,80.1z M459.2,75.4c-0.5,0-1.1-0.3-1.3-0.8
		c-0.4-0.7-0.2-1.5,0.5-2c0.7-0.5,1.6-0.3,2.1,0.4c0.1,0.1,0.1,0.2,0.2,0.4c0.3,0.8-0.2,1.6-0.9,1.9
		C459.6,75.4,459.4,75.4,459.2,75.4z M456.6,70.9c-0.4,0-0.9-0.2-1.2-0.6c0,0-0.1-0.1-0.1-0.1c-0.5-0.7-0.3-1.6,0.4-2.1
		c0.7-0.5,1.6-0.3,2.1,0.4c0.5,0.6,0.3,1.5-0.3,2C457.2,70.8,456.9,70.9,456.6,70.9z M453.5,66.6c-0.5,0-0.9-0.2-1.2-0.6
		c-0.5-0.6-0.4-1.6,0.3-2.1c0.6-0.5,1.6-0.4,2.1,0.2c0,0,0.1,0.1,0.1,0.1c0.5,0.7,0.3,1.6-0.4,2.1C454.1,66.5,453.8,66.6,453.5,66.6
		z M450.1,62.6c-0.3,0-0.7-0.1-1-0.3c-0.1-0.1-0.2-0.1-0.2-0.2c-0.5-0.6-0.4-1.6,0.2-2.1c0.6-0.5,1.5-0.4,2,0.1
		c0.5,0.5,0.6,1.4,0.1,2C451,62.4,450.6,62.6,450.1,62.6z M446.4,58.9c-0.4,0-0.7-0.1-1-0.4c-0.6-0.5-0.7-1.5-0.2-2.1
		c0.5-0.6,1.5-0.7,2.1-0.2c0,0,0.1,0.1,0.1,0.1c0.6,0.6,0.6,1.5,0,2.1C447.2,58.8,446.8,58.9,446.4,58.9z M442.3,55.6
		c-0.3,0-0.6-0.1-0.9-0.3c-0.6-0.5-0.8-1.4-0.3-2c0.5-0.7,1.4-0.9,2.1-0.4c0.1,0.1,0.2,0.1,0.2,0.2c0.6,0.6,0.6,1.5,0,2.1
		C443.1,55.5,442.7,55.6,442.3,55.6z M438,52.6c-0.2,0-0.5-0.1-0.7-0.2c-0.1,0-0.1-0.1-0.2-0.1c-0.7-0.5-0.9-1.4-0.4-2.1
		c0.4-0.7,1.3-0.9,2-0.4c0.7,0.4,0.9,1.3,0.6,2C439.1,52.3,438.6,52.6,438,52.6z M433.5,49.9c-0.3,0-0.5-0.1-0.7-0.2
		c-0.7-0.4-1-1.3-0.6-2c0.4-0.7,1.3-1,2-0.7c0.1,0,0.1,0.1,0.2,0.1c0.7,0.5,0.9,1.4,0.4,2.1C434.4,49.7,434,49.9,433.5,49.9z
		 M428.8,47.6c-0.2,0-0.3,0-0.5-0.1c-0.1,0-0.1-0.1-0.2-0.1c-0.7-0.4-1-1.3-0.7-2c0.4-0.7,1.2-1,1.9-0.7c0.7,0.3,1.1,1.1,0.8,1.9
		C430,47.2,429.4,47.6,428.8,47.6z M423.9,45.7c-0.2,0-0.4,0-0.5-0.1c-0.8-0.3-1.2-1.1-0.9-1.9c0.3-0.8,1.1-1.2,1.9-0.9
		c0,0,0,0,0.1,0c0.8,0.3,1.2,1.2,0.9,1.9C425.1,45.3,424.5,45.7,423.9,45.7z M418.9,44c-0.1,0-0.2,0-0.4,0c0,0-0.1,0-0.1,0
		c-0.8-0.3-1.2-1.1-0.9-1.9c0.3-0.8,1.1-1.2,1.9-1c0.8,0.2,1.2,1,1,1.8C420.2,43.5,419.6,44,418.9,44z M413.8,42.6
		c-0.1,0-0.1,0-0.2,0c-0.1,0-0.2,0-0.3-0.1c-0.8-0.3-1.2-1.1-0.9-1.9c0.2-0.7,1-1.2,1.8-1c0.7,0.2,1.2,0.9,1.1,1.6
		C415.2,42.1,414.6,42.6,413.8,42.6z M408.7,41.6c-0.1,0-0.2,0-0.3,0c-0.8-0.2-1.3-0.9-1.2-1.7c0.1-0.8,0.9-1.4,1.7-1.2
		c0,0,0.1,0,0.1,0c0.8,0.2,1.3,1,1.1,1.8C409.9,41.1,409.3,41.6,408.7,41.6z M403.5,40.8c-0.1,0-0.1,0-0.2,0l0.4-3
		c0.8,0.1,1.4,0.9,1.3,1.7C404.8,40.2,404.2,40.8,403.5,40.8z M398.2,40.2c-0.1,0-0.2,0-0.3,0c-0.8-0.1-1.4-0.9-1.2-1.7
		c0.1-0.8,0.9-1.3,1.6-1.2c0.8,0.1,1.4,0.7,1.4,1.5C399.7,39.6,399,40.2,398.2,40.2z M387.7,40.1c-0.7,0-1.4-0.5-1.5-1.3
		c-0.1-0.8,0.4-1.6,1.2-1.7c0,0,0.1,0,0.2,0c0.8-0.1,1.5,0.6,1.6,1.4c0.1,0.8-0.5,1.5-1.3,1.6C387.8,40.1,387.7,40.1,387.7,40.1z
		 M392.9,40c-0.8,0-1.5-0.7-1.5-1.5s0.7-1.5,1.5-1.5h0c0.8,0,1.5,0.7,1.5,1.5S393.8,40,392.9,40z"/>
	<path fill="#FF8100" d="M28.5,89.1l2.6-2.6c0.8-0.8,0.8-2,0-2.8c-0.8-0.8-2-0.8-2.8,0l-2.6,2.6l-2.6-2.6c-0.8-0.8-2-0.8-2.8,0
		c-0.8,0.8-0.8,2,0,2.8l2.6,2.6l-2.6,2.6c-0.8,0.8-0.8,2,0,2.8c0.4,0.4,0.9,0.6,1.4,0.6s1-0.2,1.4-0.6l2.6-2.6l2.6,2.6
		c0.4,0.4,0.9,0.6,1.4,0.6s1-0.2,1.4-0.6c0.8-0.8,0.8-2,0-2.8L28.5,89.1z"/>
	<path fill="#E5E6E7" d="M255,207.1l2.6-2.6c0.8-0.8,0.8-2,0-2.8c-0.8-0.8-2-0.8-2.8,0l-2.6,2.6l-2.6-2.6c-0.8-0.8-2-0.8-2.8,0
		c-0.8,0.8-0.8,2,0,2.8l2.6,2.6l-2.6,2.6c-0.8,0.8-0.8,2,0,2.8c0.4,0.4,0.9,0.6,1.4,0.6s1-0.2,1.4-0.6l2.6-2.6l2.6,2.6
		c0.4,0.4,0.9,0.6,1.4,0.6c0.5,0,1-0.2,1.4-0.6c0.8-0.8,0.8-2,0-2.8L255,207.1z"/>
	<path fill="#8061C8" d="M357.2,109.6l2.6-2.6c0.8-0.8,0.8-2,0-2.8c-0.8-0.8-2-0.8-2.8,0l-2.6,2.6l-2.6-2.6c-0.8-0.8-2-0.8-2.8,0
		c-0.8,0.8-0.8,2,0,2.8l2.6,2.6l-2.6,2.6c-0.8,0.8-0.8,2,0,2.8c0.4,0.4,0.9,0.6,1.4,0.6s1-0.2,1.4-0.6l2.6-2.6l2.6,2.6
		c0.4,0.4,0.9,0.6,1.4,0.6s1-0.2,1.4-0.6c0.8-0.8,0.8-2,0-2.8L357.2,109.6z"/>
	<g>
		<path fill="#FFFFFF" d="M158,55c-0.6,0-1.1-0.2-1.6-0.5c-0.7-0.4-1.1-1.1-1.3-1.9s0-1.6,0.4-2.3c5-7.9,5-18.1,0-26
			c-0.4-0.7-0.6-1.5-0.4-2.3c0.2-0.8,0.6-1.4,1.3-1.9c0.5-0.3,1-0.5,1.6-0.5c1,0,2,0.5,2.5,1.4c3.1,4.8,4.7,10.4,4.7,16.2
			s-1.6,11.4-4.7,16.2C159.9,54.5,159,55,158,55z M158,20.8c-0.4,0-0.7,0.1-1.1,0.3c-0.5,0.3-0.8,0.7-0.9,1.3
			c-0.1,0.5,0,1.1,0.3,1.5c5.2,8.2,5.2,18.8,0,27c-0.3,0.5-0.4,1-0.3,1.5c0.1,0.5,0.4,1,0.9,1.3c0.9,0.6,2.2,0.3,2.8-0.6
			c3-4.7,4.5-10.1,4.5-15.7s-1.6-11-4.5-15.7C159.3,21.2,158.6,20.8,158,20.8z"/>
		<g>
			<path fill="#FFFFFF" d="M148.2,47.4c-1.6,0-2.9-1.3-2.9-2.9c0-1.6,1.3-2.9,2.9-2.9s2.9,1.3,2.9,2.9
				C151.1,46.1,149.8,47.4,148.2,47.4z M148.2,42.6c-1,0-1.9,0.8-1.9,1.9c0,1,0.8,1.9,1.9,1.9s1.9-0.8,1.9-1.9
				C150.1,43.5,149.2,42.6,148.2,42.6z"/>
			<path fill="#FFFFFF" d="M148.2,33.2c-1.6,0-2.9-1.3-2.9-2.9s1.3-2.9,2.9-2.9s2.9,1.3,2.9,2.9S149.8,33.2,148.2,33.2z M148.2,28.5
				c-1,0-1.9,0.8-1.9,1.9s0.8,1.9,1.9,1.9s1.9-0.8,1.9-1.9S149.2,28.5,148.2,28.5z"/>
		</g>
	</g>
	<g>
		<g>
			<path fill="#E5E6E7" d="M327.7,209.4c-5.5,0-11.1-1.5-15.9-4.6c-1.2-0.7-1.5-2.3-0.8-3.5c0.7-1.2,2.3-1.5,3.5-0.8
				c8,5.1,18.5,5.1,26.5,0c1.2-0.7,2.7-0.4,3.5,0.8c0.7,1.2,0.4,2.7-0.8,3.5C338.8,207.8,333.3,209.4,327.7,209.4z"/>
			<g>
				<circle fill="#E5E6E7" cx="320.6" cy="192.9" r="2.4"/>
				<circle fill="#E5E6E7" cx="334.8" cy="192.9" r="2.4"/>
			</g>
		</g>
	</g>
	<g>
		<path fill="#74BD27" d="M351.4,26.3c0.6,0,1.1,0.5,1.1,1.1v0.6c1.5,0.2,2.8,0.7,4,1.4c0.4,0.2,0.8,0.6,0.8,1.2
			c0,0.8-0.6,1.4-1.4,1.4c-0.3,0-0.5-0.1-0.8-0.2c-0.9-0.5-1.8-0.9-2.6-1.1v4.9c3.9,1,5.6,2.5,5.6,5.3c0,2.8-2.2,4.7-5.5,5v1.5
			c0,0.6-0.5,1.1-1.1,1.1s-1.1-0.5-1.1-1.1v-1.6c-1.9-0.2-3.7-0.9-5.3-2c-0.4-0.3-0.7-0.7-0.7-1.2c0-0.8,0.6-1.4,1.4-1.4
			c0.3,0,0.6,0.1,0.8,0.3c1.2,0.9,2.4,1.5,3.8,1.7v-5.1c-3.8-1-5.5-2.4-5.5-5.3c0-2.8,2.2-4.7,5.4-4.9v-0.5
			C350.2,26.7,350.8,26.3,351.4,26.3z M350.3,35v-4.6c-1.6,0.2-2.5,1-2.5,2.2C347.9,33.7,348.4,34.4,350.3,35z M352.4,38.6v4.7
			c1.6-0.2,2.5-1,2.5-2.2C354.9,39.9,354.4,39.2,352.4,38.6z"/>
	</g>
	<g>
		<path fill="#F3B400" d="M392.3,176.2c-0.9,0-1.9-0.4-2.5-1.1l-5.7-5.9c-1.3-1.4-1.3-3.6,0.1-4.9c1.3-1.3,3.7-1.3,4.9,0.1l3,3.1
			l11.9-14.3c0.7-0.8,1.6-1.3,2.7-1.3c0.8,0,1.6,0.3,2.2,0.8c0.7,0.6,1.2,1.4,1.2,2.4c0.1,0.9-0.2,1.8-0.8,2.6L395,175
			c-0.6,0.8-1.6,1.2-2.6,1.3L392.3,176.2z M386.6,164.3c-0.7,0-1.3,0.2-1.7,0.7c-1,1-1,2.5-0.1,3.5l5.7,5.9c0.5,0.5,1.1,0.8,1.8,0.8
			l0.1,0c0.7,0,1.4-0.4,1.8-0.9l14.4-17.3c0.4-0.5,0.6-1.2,0.6-1.8s-0.4-1.3-0.9-1.7c-1-0.9-2.7-0.7-3.5,0.3L392.2,169l-3.8-3.9
			C387.9,164.6,387.3,164.3,386.6,164.3z"/>
	</g>
	<g>
		<circle fill="#E5E6E7" cx="21.5" cy="123.7" r="2.2"/>
		<circle fill="#E5E6E7" cx="29.4" cy="123.7" r="2.2"/>
		<circle fill="#E5E6E7" cx="37.4" cy="123.7" r="2.2"/>
	</g>
	<g>
		<circle fill="#74BD27" cx="413.2" cy="192.1" r="2.2"/>
		<circle fill="#74BD27" cx="421.2" cy="192.1" r="2.2"/>
		<circle fill="#74BD27" cx="429.1" cy="192.1" r="2.2"/>
	</g>
	<g>
		<circle fill="#FFFFFF" cx="388.7" cy="28.3" r="2.2"/>
		<circle fill="#FFFFFF" cx="396.7" cy="28.3" r="2.2"/>
		<circle fill="#FFFFFF" cx="404.6" cy="28.3" r="2.2"/>
	</g>
</g>
<path fill="#106580" d="M57.6,164c-0.7,0-1.2-0.4-1.4-1.1c-0.2-0.8,0.2-1.6,1-1.9c0.8-0.3,1.6,0.2,1.9,0.9c0,0,0,0.1,0,0.1
	c0.2,0.8-0.3,1.6-1.1,1.8C57.8,164,57.7,164,57.6,164z"/>
<path fill="#106580" d="M64.8,177.9c-0.7,0-1.2-0.4-1.4-1.1c-0.2-0.8,0.2-1.6,1-1.9c0.8-0.3,1.6,0.2,1.9,0.9c0,0,0,0.1,0,0.1
	c0.2,0.8-0.3,1.6-1.1,1.8C65.1,177.9,65,177.9,64.8,177.9z"/>
<path fill="#106580" d="M97.6,203c-0.7,0-1.2-0.4-1.4-1.1c-0.2-0.8,0.2-1.6,1-1.9c0.8-0.3,1.6,0.2,1.9,0.9c0,0,0,0.1,0,0.1
	c0.2,0.8-0.3,1.6-1.1,1.8C97.9,203,97.8,203,97.6,203z"/>
<path fill="#106580" d="M403.5,40.8c-0.7,0-1.2-0.4-1.4-1.1c-0.2-0.8,0.2-1.6,1-1.9c0.8-0.3,1.6,0.2,1.9,0.9c0,0,0,0.1,0,0.1
	c0.2,0.8-0.3,1.6-1.1,1.8C403.7,40.8,403.6,40.8,403.5,40.8z"/>
<path fill="#106580" d="M465,90.1c-0.7,0-1.2-0.4-1.4-1.1c-0.2-0.8,0.2-1.6,1-1.9c0.8-0.3,1.6,0.2,1.9,0.9c0,0,0,0.1,0,0.1
	c0.2,0.8-0.3,1.6-1.1,1.8C465.2,90.1,465.1,90.1,465,90.1z"/>
</svg>
