<?xml version="1.0" encoding="utf-8"?>
<!-- Generator: Adobe Illustrator 18.0.0, SVG Export Plug-In . SVG Version: 6.00 Build 0)  -->
<!DOCTYPE svg PUBLIC "-//W3C//DTD SVG 1.1//EN" "http://www.w3.org/Graphics/SVG/1.1/DTD/svg11.dtd">
<svg version="1.1" id="Layer_1" xmlns="http://www.w3.org/2000/svg" xmlns:xlink="http://www.w3.org/1999/xlink" x="0px" y="0px"
	 viewBox="0 0 216 48" enable-background="new 0 0 216 48" xml:space="preserve">
<g>
	<g>
		<g>
			<g>
				<path fill="#BCBEC0" d="M42.7,13.2l-4.5-1.6c-0.8,0.9-2,1.3-3.2,0.9c-1.2-0.4-1.9-1.5-1.9-2.7c0,0-2.4-0.8-2.7-1
					c-0.4-0.1-0.6-0.2-0.4,0.4c0.2,0.4,6.9,18.8,6.9,18.8c0.5,1.4,0.9,1.3,1.3,0.1l5-13.8C43.3,13.8,43.1,13.4,42.7,13.2z
					 M36.5,18.9c-0.1,0.4-0.6,0.6-1,0.5c-0.4-0.1-0.6-0.6-0.5-1c0.1-0.4,0.6-0.6,1-0.5C36.5,18.1,36.7,18.5,36.5,18.9z M39.2,19.9
					c-0.1,0.4-0.6,0.6-1,0.5c-0.4-0.1-0.6-0.6-0.5-1c0.1-0.4,0.6-0.6,1-0.5C39.2,19.1,39.4,19.5,39.2,19.9z"/>
			</g>
		</g>
		<g>
			<g>
				<path fill="#BCBEC0" d="M26.6,8.1l-5.6,2c0,1.5-0.9,2.9-2.4,3.4c-1.5,0.5-3.1,0.1-4-1.1l-5.6,2c-0.5,0.2-0.8,0.7-0.6,1.2
					L17,39.3c0.2,0.5,0.7,0.8,1.2,0.6l5.6-2c0-1.5,0.9-2.9,2.4-3.4c1.5-0.5,3.1-0.1,4,1.1l5.6-2c0.5-0.2,0.8-0.7,0.6-1.2L27.8,8.7
					C27.7,8.2,27.1,7.9,26.6,8.1z M14.8,23.3c-0.6,0.4-1.4,0-1.5-0.7c0-0.3,0.1-0.7,0.4-0.9c0.6-0.4,1.4,0,1.5,0.7
					C15.2,22.8,15.1,23.1,14.8,23.3z M18.2,22.1c-0.6,0.4-1.4,0-1.5-0.7c0-0.3,0.1-0.7,0.4-0.9c0.6-0.4,1.4,0,1.5,0.7
					C18.6,21.5,18.4,21.9,18.2,22.1z M21.5,20.9c-0.6,0.4-1.4,0-1.5-0.7c0-0.3,0.1-0.7,0.4-0.9c0.6-0.4,1.4,0,1.5,0.7
					C22,20.3,21.8,20.7,21.5,20.9z M24.9,19.6c-0.6,0.4-1.4,0-1.5-0.7c0-0.3,0.1-0.7,0.4-0.9c0.6-0.4,1.4,0,1.5,0.7
					C25.3,19.1,25.2,19.5,24.9,19.6z M28.3,18.4c-0.6,0.4-1.4,0-1.5-0.7c0-0.3,0.1-0.7,0.4-0.9c0.6-0.4,1.4,0,1.5,0.7
					C28.7,17.9,28.5,18.2,28.3,18.4z"/>
			</g>
		</g>
		<path fill="#BCBEC0" d="M65.8,35.8c-1,0.2-2.3,0.5-6.2,0.5c-4.2,0-7.5-1.1-7.5-6.6V18.3c0-5.5,3.3-6.6,7.5-6.6
			c3.9,0,5.1,0.3,6.2,0.5c0.5,0.1,0.6,0.2,0.6,0.7v2.1c0,0.4-0.3,0.6-0.6,0.6h-6.6c-1.9,0-2.6,0.6-2.6,2.8v3.5h8.8
			c0.4,0,0.6,0.3,0.6,0.6v2.3c0,0.4-0.3,0.6-0.6,0.6h-8.8v4.2c0,2.1,0.7,2.8,2.6,2.8h6.6c0.4,0,0.6,0.3,0.6,0.6v2.1
			C66.4,35.6,66.3,35.8,65.8,35.8z"/>
		<path fill="#BCBEC0" d="M83,36h-3c-0.4,0-0.6-0.3-0.6-0.7V24.8c0-2.8-0.3-3.6-2.8-3.6c-1.1,0-2.3,0.5-3.7,1.2v13
			c0,0.4-0.3,0.7-0.6,0.7h-3c-0.4,0-0.6-0.3-0.6-0.7v-17c0-0.4,0.3-0.6,0.6-0.6h2.8c0.4,0,0.6,0.3,0.6,0.6V19
			c1.9-1.2,3.1-1.6,5.3-1.6c4.7,0,5.6,3.1,5.6,7.3v10.6C83.6,35.7,83.3,36,83,36z"/>
		<path fill="#BCBEC0" d="M95.3,36c-0.8,0.1-1.5,0.2-2.2,0.2c-3.7,0-5.2-0.8-5.2-5.2V20.9l-3-0.5c-0.4-0.1-0.6-0.3-0.6-0.6v-1.5
			c0-0.4,0.3-0.6,0.6-0.6h3v-2.7c0-0.4,0.3-0.6,0.6-0.6l3-0.5c0,0,0.1,0,0.1,0c0.3,0,0.5,0.2,0.5,0.5v3.3h2.9c0.4,0,0.6,0.3,0.6,0.6
			v1.9c0,0.4-0.3,0.6-0.6,0.6h-2.9v10.2c0,1.6,0.1,1.8,1.3,1.8h1.7c0.4,0,0.7,0.2,0.7,0.5v2C95.9,35.8,95.7,36,95.3,36z"/>
		<path fill="#BCBEC0" d="M106.9,21.6c-1.8,0-3.1,0.5-4.5,1.2v12.5c0,0.4-0.3,0.7-0.6,0.7h-3c-0.4,0-0.6-0.3-0.6-0.7v-17
			c0-0.4,0.3-0.6,0.6-0.6h2.8c0.4,0,0.6,0.3,0.6,0.6v1.2c1.6-1.2,3.3-1.6,4.6-1.6c0.4,0,0.6,0.3,0.6,0.6V21
			C107.5,21.3,107.2,21.6,106.9,21.6z"/>
		<path fill="#BCBEC0" d="M121.7,36h-2.8c-0.4,0-0.6-0.3-0.6-0.6v-0.5c-1.5,0.9-3,1.4-4.6,1.4c-2.7,0-5.6-1-5.6-5.4v-0.1
			c0-3.7,2.3-5.6,7.9-5.6h2v-1.4c0-2.1-0.9-2.6-2.9-2.6c-2.1,0-4.2,0.1-5.3,0.3c-0.1,0-0.1,0-0.2,0c-0.3,0-0.6-0.1-0.6-0.6v-2.1
			c0-0.4,0.2-0.6,0.6-0.7c1.3-0.3,3.2-0.5,5.4-0.5c4.6,0,7.1,2,7.1,6.2v11.7C122.3,35.7,122.1,36,121.7,36z M118.1,28h-2
			c-3,0-3.6,0.9-3.6,2.8v0.1c0,1.6,0.7,2,2.3,2c1.2,0,2.4-0.4,3.3-0.9V28z"/>
		<path fill="#BCBEC0" d="M138.7,35.4c-2,0.5-4.4,0.8-6.5,0.8c-5.2,0-7.8-3.1-7.8-8.1v-2.5c0-5.1,2.5-8.1,7.8-8.1
			c0.8,0,1.9,0.1,3.1,0.2V12c0-0.4,0.3-0.6,0.6-0.6h3c0.4,0,0.6,0.3,0.6,0.6v22.6C139.6,35,139.5,35.2,138.7,35.4z M135.3,21.2
			c-0.9-0.1-2.3-0.2-3.1-0.2c-2.8,0-3.5,2-3.5,4.6v2.5c0,2.7,0.7,4.6,3.5,4.6c1.2,0,2.5-0.1,3.1-0.2V21.2z"/>
		<path fill="#BCBEC0" d="M155.1,36h-2.8c-0.4,0-0.6-0.3-0.6-0.6v-0.5c-1.5,0.9-3,1.4-4.6,1.4c-2.7,0-5.6-1-5.6-5.4v-0.1
			c0-3.7,2.3-5.6,7.9-5.6h2v-1.4c0-2.1-0.9-2.6-2.9-2.6c-2.1,0-4.2,0.1-5.3,0.3c-0.1,0-0.1,0-0.2,0c-0.3,0-0.6-0.1-0.6-0.6v-2.1
			c0-0.4,0.2-0.6,0.6-0.7c1.3-0.3,3.2-0.5,5.4-0.5c4.6,0,7.1,2,7.1,6.2v11.7C155.7,35.7,155.4,36,155.1,36z M151.4,28h-2
			c-3,0-3.6,0.9-3.6,2.8v0.1c0,1.6,0.7,2,2.3,2c1.2,0,2.4-0.4,3.3-0.9V28z"/>
		<g>
			<g>
				<path fill="#BCBEC0" d="M174.6,15.5H168c-1.9,0-2.6,0.6-2.6,2.8v3.5h8.8c0.4,0,0.6,0.3,0.6,0.6v2.3c0,0.4-0.3,0.6-0.6,0.6h-8.8
					v9.9c0,0.4-0.3,0.6-0.6,0.6h-3.2c-0.4,0-0.6-0.3-0.6-0.6V18.3c0-5.5,3.3-6.6,7.5-6.6c3.9,0,5.1,0.3,6.2,0.5
					c0.5,0.1,0.6,0.2,0.6,0.7v2.1C175.3,15.2,175,15.5,174.6,15.5z"/>
			</g>
		</g>
		<g>
			<g>
				<path fill="#BCBEC0" d="M189.7,36h-2.8c-0.4,0-0.6-0.3-0.6-0.6v-0.5c-1.5,0.9-3,1.4-4.6,1.4c-2.7,0-5.6-1-5.6-5.4v-0.1
					c0-3.7,2.3-5.6,7.9-5.6h2v-1.4c0-2.1-0.9-2.6-2.9-2.6c-2.1,0-4.2,0.1-5.3,0.3c-0.1,0-0.1,0-0.2,0c-0.3,0-0.6-0.1-0.6-0.6v-2.1
					c0-0.4,0.2-0.6,0.6-0.7c1.3-0.3,3.2-0.5,5.4-0.5c4.6,0,7.1,2,7.1,6.2v11.7C190.3,35.7,190,36,189.7,36z M186,28h-2
					c-3,0-3.6,0.9-3.6,2.8v0.1c0,1.6,0.7,2,2.3,2c1.2,0,2.4-0.4,3.3-0.9V28z"/>
			</g>
		</g>
		<g>
			<g>
				<path fill="#BCBEC0" d="M207,36h-3c-0.4,0-0.6-0.3-0.6-0.7V24.8c0-2.8-0.3-3.6-2.8-3.6c-1.1,0-2.3,0.5-3.7,1.2v13
					c0,0.4-0.3,0.7-0.6,0.7h-3c-0.4,0-0.6-0.3-0.6-0.7v-17c0-0.4,0.3-0.6,0.6-0.6h2.8c0.4,0,0.6,0.3,0.6,0.6V19
					c1.9-1.2,3.1-1.6,5.3-1.6c4.7,0,5.6,3.1,5.6,7.3v10.6C207.6,35.7,207.4,36,207,36z"/>
			</g>
		</g>
	</g>
</g>
</svg>
