<?xml version="1.0" encoding="utf-8"?>
<!-- Generator: Adobe Illustrator 18.0.0, SVG Export Plug-In . SVG Version: 6.00 Build 0)  -->
<!DOCTYPE svg PUBLIC "-//W3C//DTD SVG 1.1//EN" "http://www.w3.org/Graphics/SVG/1.1/DTD/svg11.dtd">
<svg version="1.1" id="Layer_1" xmlns="http://www.w3.org/2000/svg" xmlns:xlink="http://www.w3.org/1999/xlink" x="0px" y="0px"
	 viewBox="0 0 282 171" enable-background="new 0 0 282 171" xml:space="preserve">
<g>
	<g>
		<path fill="#FFFFFF" d="M268.7,123.7v-30c-6,0-10.8-4.9-10.8-10.8s4.9-10.8,10.8-10.8v-30c-4.9,0-9-4-9-9H54c0,4.9-4,9-9,9h0v30
			c6,0,10.8,4.9,10.8,10.8s-4.9,10.8-10.8,10.8v30h0c4.9,0,9,4,9,9h205.7C259.8,127.7,263.8,123.7,268.7,123.7z"/>
		<path fill="#2F91C7" d="M261.8,134.7H52v-2c0-3.8-3.1-7-7-7h-2l0-34h2c4.9,0,8.8-4,8.8-8.8c0-4.9-4-8.8-8.8-8.8h-2v-34h2
			c3.8,0,7-3.1,7-7v-2h209.7v2c0,3.8,3.1,7,7,7h2v34h-2c-4.9,0-8.8,4-8.8,8.8c0,4.9,4,8.8,8.8,8.8h2v34h-2c-3.8,0-7,3.1-7,7V134.7z
			 M55.8,130.7H258c0.8-4.4,4.3-7.9,8.8-8.8V95.6c-6.1-1-10.8-6.3-10.8-12.7s4.7-11.7,10.8-12.7V43.9c-4.4-0.8-7.9-4.3-8.8-8.8H55.8
			c-0.8,4.4-4.3,7.9-8.8,8.8l0,26.3c6.1,1,10.8,6.3,10.8,12.7s-4.7,11.7-10.8,12.7v26.3C51.5,122.7,55,126.2,55.8,130.7z"/>
	</g>
	<rect x="104" y="81.4" fill="#E5E6E7" width="105.8" height="3"/>
	<g>
		<g>
			<path fill="#2F91C7" d="M157.4,50.6c1.6,0,2.9,1.3,2.9,2.9V55c4,0.5,7.4,1.8,10.5,3.7c1.1,0.6,2,1.6,2,3.3c0,2.1-1.7,3.7-3.8,3.7
				c-0.7,0-1.4-0.2-2-0.6c-2.4-1.4-4.7-2.4-7-3v13c10.3,2.6,14.7,6.7,14.7,14c0,7.5-5.8,12.4-14.5,13.3v4.1c0,1.6-1.3,2.9-2.9,2.9
				c-1.6,0-3-1.3-3-2.9v-4.2c-5.1-0.5-9.8-2.4-13.9-5.3c-1.2-0.7-1.8-1.8-1.8-3.3c0-2.1,1.6-3.7,3.7-3.7c0.8,0,1.6,0.3,2.2,0.7
				c3.2,2.3,6.3,3.9,10.1,4.6V81.9c-9.9-2.6-14.5-6.3-14.5-14c0-7.3,5.8-12.3,14.3-13v-1.4C154.5,51.9,155.8,50.6,157.4,50.6z
				 M154.7,73.8v-12c-4.3,0.4-6.5,2.7-6.5,5.7C148.2,70.3,149.5,72.1,154.7,73.8z M160.1,83.2v12.4c4.3-0.5,6.7-2.7,6.7-5.9
				C166.8,86.7,165.3,84.9,160.1,83.2z"/>
		</g>
	</g>
	<g>
		<g>
			<line fill="#FFFFFF" x1="73.7" y1="44.7" x2="73.7" y2="121.2"/>
			<rect x="71.6" y="44.7" fill="#2F91C7" width="4.1" height="76.5"/>
		</g>
		<g>
			<line fill="#FFFFFF" x1="85.5" y1="44.7" x2="85.5" y2="121.2"/>
			<rect x="83.4" y="44.7" fill="#2F91C7" width="4.1" height="76.5"/>
		</g>
		<g>
			<line fill="#FFFFFF" x1="228.3" y1="44.7" x2="228.3" y2="121.2"/>
			<rect x="226.3" y="44.7" fill="#2F91C7" width="4.1" height="76.5"/>
		</g>
		<g>
			<line fill="#FFFFFF" x1="240.1" y1="44.7" x2="240.1" y2="121.2"/>
			<rect x="238.1" y="44.7" fill="#2F91C7" width="4.1" height="76.5"/>
		</g>
	</g>
	<g>
		<path fill="#FFFFFF" d="M19,13.2h84.3c2.8,0,5.1,2.3,5.1,5.1v30.9c0,2.8-2.3,5.1-5.1,5.1H98v7.5c0,0.8-1,1.3-1.6,0.8l-11.1-8.3H19
			c-2.8,0-5.1-2.3-5.1-5.1V18.3C13.9,15.5,16.2,13.2,19,13.2z"/>
		<path fill="#E5E6E7" d="M103.3,13.2c2.8,0,5.1,2.3,5.1,5.1v30.9c0,2.8-2.3,5.1-5.1,5.1H98v7.5c0,0.6-0.5,1-1,1
			c-0.2,0-0.4-0.1-0.6-0.2l-11.1-8.3H19c-2.8,0-5.1-2.3-5.1-5.1V18.3c0-2.8,2.3-5.1,5.1-5.1H103.3 M103.3,10.2H19
			c-4.5,0-8.1,3.6-8.1,8.1v30.9c0,4.5,3.6,8.1,8.1,8.1h65.2l10.3,7.7c0.7,0.5,1.5,0.8,2.4,0.8c2.2,0,4-1.8,4-4v-4.5h2.3
			c4.5,0,8.1-3.6,8.1-8.1V18.3C111.3,13.8,107.7,10.2,103.3,10.2L103.3,10.2z"/>
	</g>
	<path fill="#E5E6E7" d="M32.1,28.7l2.6-2.6c0.8-0.8,0.8-2,0-2.8c-0.8-0.8-2-0.8-2.8,0l-2.6,2.6l-2.6-2.6c-0.8-0.8-2-0.8-2.8,0
		c-0.8,0.8-0.8,2,0,2.8l2.6,2.6l-2.6,2.6c-0.8,0.8-0.8,2,0,2.8c0.4,0.4,0.9,0.6,1.4,0.6s1-0.2,1.4-0.6l2.6-2.6l2.6,2.6
		c0.4,0.4,0.9,0.6,1.4,0.6s1-0.2,1.4-0.6c0.8-0.8,0.8-2,0-2.8L32.1,28.7z"/>
	<g>
		<path fill="#FFFFFF" d="M263.9,157h-60.5c-3.5,0-6.3-2.8-6.3-6.3v-38.6c0-3.5,2.8-6.3,6.3-6.3h6.6v-9.3c0-1.1,1.2-1.7,2.1-1
			l13.9,10.3h37.9c3.5,0,6.3,2.8,6.3,6.3v38.6C270.3,154.1,267.4,157,263.9,157z"/>
		<path fill="#E5E6E7" d="M263.9,158.5h-60.5c-4.3,0-7.8-3.5-7.8-7.8v-38.6c0-4.3,3.5-7.8,7.8-7.8h5.1v-7.8c0-1.5,1.2-2.8,2.8-2.8
			c0.6,0,1.2,0.2,1.7,0.6l13.5,10h37.5c4.3,0,7.8,3.5,7.8,7.8v38.6C271.8,155,268.3,158.5,263.9,158.5z M203.5,107.2
			c-2.7,0-4.9,2.2-4.9,4.9v38.6c0,2.7,2.2,4.9,4.9,4.9h60.5c2.7,0,4.9-2.2,4.9-4.9v-38.6c0-2.7-2.2-4.9-4.9-4.9h-38.4l-13.9-10.4
			v10.4H203.5z"/>
	</g>
	<g>
		<path fill="#74BD27" d="M227.2,148.9c-1.2,0-2.4-0.5-3.2-1.4l-8.5-8.8c-1.7-1.8-1.7-4.6,0.1-6.3c1.8-1.7,4.6-1.7,6.3,0.1l5.1,5.2
			l18.3-22c1.6-1.9,4.4-2.2,6.3-0.6c1.9,1.6,2.2,4.4,0.6,6.3l-21.5,25.9c-0.8,1-2,1.6-3.3,1.6C227.3,148.9,227.3,148.9,227.2,148.9z
			"/>
	</g>
	<path fill="#FF8100" d="M203.4,53l2.6-2.6c0.8-0.8,0.8-2,0-2.8c-0.8-0.8-2-0.8-2.8,0l-2.6,2.6l-2.6-2.6c-0.8-0.8-2-0.8-2.8,0
		c-0.8,0.8-0.8,2,0,2.8l2.6,2.6l-2.6,2.6c-0.8,0.8-0.8,2,0,2.8c0.4,0.4,0.9,0.6,1.4,0.6s1-0.2,1.4-0.6l2.6-2.6l2.6,2.6
		c0.4,0.4,0.9,0.6,1.4,0.6s1-0.2,1.4-0.6c0.8-0.8,0.8-2,0-2.8L203.4,53z"/>
	<g>
		<circle fill="#FFFFFF" cx="58.5" cy="148.9" r="3.6"/>
		<circle fill="#FFFFFF" cx="71.7" cy="148.9" r="3.6"/>
		<circle fill="#FFFFFF" cx="84.9" cy="148.9" r="3.6"/>
	</g>
	<g>
		<circle fill="#E5E6E7" cx="73.8" cy="44" r="2.9"/>
		<circle fill="#E5E6E7" cx="84.5" cy="44" r="2.9"/>
		<circle fill="#E5E6E7" cx="95.2" cy="44" r="2.9"/>
	</g>
	<g>
		<path fill="#FF8100" d="M109.6,115.5c-0.6,0-1.1-0.5-1.1-1.1l-0.3-2.3c-0.1-0.7,0.3-1.2,1-1.3c2.5-0.2,3.9-1.2,3.9-2.9V108
			c0-1.5-1.1-2.5-3-2.5c-1.4,0-2.5,0.5-3.6,1.5c-0.3,0.2-0.6,0.4-1,0.4c-0.8,0-1.5-0.7-1.5-1.5c0-0.4,0.2-0.8,0.5-1.1
			c1.4-1.3,3.2-2.2,5.6-2.2c3.7,0,6.2,2.1,6.2,5.4v0.1c0,3.3-2.4,4.8-5.4,5.4l-0.1,1.2c-0.1,0.6-0.5,1.1-1.1,1.1H109.6z
			 M109.6,117.5c1.1,0,1.9,0.8,1.9,1.8v0.3c0,1-0.8,1.8-1.9,1.8c-1.1,0-1.9-0.8-1.9-1.8v-0.3C107.7,118.3,108.5,117.5,109.6,117.5z"
			/>
	</g>
</g>
</svg>
