<?xml version="1.0" encoding="utf-8"?>
<!-- Generator: Adobe Illustrator 18.0.0, SVG Export Plug-In . SVG Version: 6.00 Build 0)  -->
<!DOCTYPE svg PUBLIC "-//W3C//DTD SVG 1.1//EN" "http://www.w3.org/Graphics/SVG/1.1/DTD/svg11.dtd">
<svg version="1.1" id="Layer_1" xmlns="http://www.w3.org/2000/svg" xmlns:xlink="http://www.w3.org/1999/xlink" x="0px" y="0px"
	 viewBox="0 0 279 196.5" enable-background="new 0 0 279 196.5" xml:space="preserve">
<g>
	<g>
		<g>
			<polyline fill="#FFFFFF" points="257.2,98.7 257.2,181.4 101.8,181.4 101.8,98.7 			"/>
			<path fill="#013564" d="M259.7,183.9H99.3V98.7c0-1.4,1.1-2.5,2.5-2.5s2.5,1.1,2.5,2.5v80.2h150.3V98.7c0-1.4,1.1-2.5,2.5-2.5
				s2.5,1.1,2.5,2.5V183.9z"/>
		</g>
		<polygon fill="#013564" points="179.5,144.6 100.6,100.9 103,96.5 179.5,138.9 255.9,96.5 258.4,100.9 		"/>
		<g>
			<line fill="#FFFFFF" x1="101.8" y1="181.4" x2="167" y2="134.8"/>
			
				<rect x="131.9" y="118.1" transform="matrix(0.5811 0.8139 -0.8139 0.5811 185.0098 -43.1694)" fill="#013564" width="5" height="80.1"/>
		</g>
		<g>
			<line fill="#FFFFFF" x1="257.2" y1="181.4" x2="191.9" y2="134.8"/>
			
				<rect x="184.5" y="155.6" transform="matrix(0.8139 0.581 -0.581 0.8139 133.6693 -101.0418)" fill="#013564" width="80.1" height="5"/>
		</g>
		<path fill="#013564" d="M257.2,101.2c-0.4,0-0.9-0.1-1.3-0.3l-76.4-44.3l-76.4,44.3c-1.2,0.7-2.7,0.3-3.4-0.9
			c-0.7-1.2-0.3-2.7,0.9-3.4l78.9-45.7l78.9,45.7c1.2,0.7,1.6,2.2,0.9,3.4C258.9,100.8,258,101.2,257.2,101.2z"/>
		<g>
			<path fill="#FFFFFF" d="M236.9,107.9V32.6c0-1.9-1.5-3.4-3.4-3.4H122.5c-1.9,0-3.4,1.5-3.4,3.4v73.7c0,1.2,0.7,2.3,1.7,2.9
				l57,31.5c1,0.6,2.2,0.6,3.3,0l54.1-29.9C236.3,110.3,236.9,109.2,236.9,107.9z"/>
			<path fill="#013564" d="M179.5,143.7c-1,0-2-0.3-2.8-0.7l-57-31.5c-1.9-1-3-3-3-5.1V32.6c0-3.2,2.6-5.9,5.9-5.9h111.1
				c3.2,0,5.9,2.6,5.9,5.9v75.3c0,2.1-1.2,4.1-3,5.1L182.3,143C181.5,143.5,180.5,143.7,179.5,143.7z M122.5,31.8
				c-0.5,0-0.9,0.4-0.9,0.9v73.7c0,0.3,0.2,0.6,0.4,0.8l57,31.5c0.3,0.1,0.6,0.1,0.8,0l54.1-29.9c0.3-0.2,0.4-0.4,0.4-0.7V32.6
				c0-0.5-0.4-0.9-0.9-0.9H122.5z"/>
		</g>
		<g>
			<path fill="#E5E6E7" d="M134.1,61.4c1.4,0,2.3,1,2.3,2.3V64c0,1.3-0.9,2.3-2.3,2.3c-1.4,0-2.3-1-2.3-2.3v-0.3
				C131.8,62.4,132.7,61.4,134.1,61.4z M142.8,61.4c1.4,0,2.3,1,2.3,2.3V64c0,1.3-0.9,2.3-2.3,2.3c-1.4,0-2.3-1-2.3-2.3v-0.3
				C140.5,62.4,141.4,61.4,142.8,61.4z M151.5,61.4c1.4,0,2.3,1,2.3,2.3V64c0,1.3-0.9,2.3-2.3,2.3c-1.4,0-2.3-1-2.3-2.3v-0.3
				C149.2,62.4,150.1,61.4,151.5,61.4z"/>
			<path fill="#E5E6E7" d="M160.3,60.8h-1.5c-1,0-1.7-0.8-1.7-1.7c0-0.9,0.8-1.7,1.7-1.7h2.1l1-5.8h-1.9c-0.9,0-1.7-0.8-1.7-1.7
				c0-0.9,0.8-1.7,1.7-1.7h2.5l0.7-3.9c0.1-0.9,0.9-1.4,1.7-1.4c1.1,0,1.9,1,1.7,2l-0.6,3.3h5.2l0.7-3.9c0.1-0.9,0.9-1.4,1.8-1.4
				c1.1,0,1.9,1,1.7,2l-0.6,3.3h1.5c0.9,0,1.7,0.8,1.7,1.7c0,0.9-0.8,1.7-1.7,1.7h-2.1l-1,5.8h1.9c1,0,1.7,0.8,1.7,1.7
				c0,0.9-0.8,1.7-1.7,1.7h-2.5l-0.7,4.1c-0.1,0.8-0.9,1.4-1.7,1.4c-1.1,0-1.9-1-1.7-2l0.6-3.5h-5.2l-0.7,4.1
				c-0.1,0.7-0.8,1.4-1.8,1.4c-1.1,0-1.9-0.9-1.7-2L160.3,60.8z M169.6,57.4l1-5.8h-5.2l-1,5.8H169.6z"/>
			<path fill="#E5E6E7" d="M181.7,44.3c-0.1-0.8,0.4-1.4,1.2-1.4h2.4c0.8,0,1.3,0.6,1.2,1.4l-1.2,13.5c-0.1,0.7-0.6,1.2-1.2,1.2
				s-1.1-0.5-1.2-1.2L181.7,44.3z M184.1,61.4c1.4,0,2.3,1,2.3,2.3V64c0,1.3-1,2.3-2.3,2.3c-1.3,0-2.3-1-2.3-2.3v-0.3
				C181.7,62.4,182.7,61.4,184.1,61.4z"/>
			<path fill="#E5E6E7" d="M199.9,40.9c0.8,0,1.4,0.6,1.4,1.4v0.7c2,0.2,3.6,0.9,5.1,1.8c0.5,0.3,1,0.8,1,1.6c0,1-0.8,1.8-1.9,1.8
				c-0.3,0-0.7-0.1-1-0.3c-1.2-0.7-2.3-1.2-3.4-1.5v6.4c5,1.3,7.2,3.3,7.2,6.8c0,3.6-2.8,6.1-7,6.5v2c0,0.8-0.6,1.4-1.4,1.4
				c-0.8,0-1.5-0.6-1.5-1.4v-2.1c-2.5-0.3-4.8-1.2-6.8-2.6c-0.6-0.4-0.9-0.9-0.9-1.6c0-1,0.8-1.8,1.8-1.8c0.4,0,0.8,0.1,1.1,0.4
				c1.6,1.1,3.1,1.9,4.9,2.2v-6.5c-4.8-1.3-7.1-3.1-7.1-6.8c0-3.5,2.8-6,7-6.3v-0.7C198.5,41.5,199.1,40.9,199.9,40.9z M198.6,52.2
				v-5.9c-2.1,0.2-3.2,1.3-3.2,2.8C195.4,50.5,196.1,51.4,198.6,52.2z M201.2,56.8v6c2.1-0.2,3.3-1.3,3.3-2.9
				C204.5,58.5,203.8,57.6,201.2,56.8z"/>
			<path fill="#E5E6E7" d="M217.7,64.8c0.1,0.8-0.4,1.4-1.2,1.4h-2.4c-0.8,0-1.2-0.6-1.2-1.4l1.2-13.5c0.1-0.7,0.5-1.2,1.2-1.2
				s1.2,0.5,1.2,1.2L217.7,64.8z M215.3,47.7c-1.3,0-2.3-1-2.3-2.3v-0.3c0-1.3,1-2.3,2.3-2.3c1.4,0,2.3,1,2.3,2.3v0.3
				C217.7,46.7,216.7,47.7,215.3,47.7z"/>
			<path fill="#E5E6E7" d="M132.3,78.1c-0.1-0.8,0.4-1.4,1.2-1.4h2.4c0.8,0,1.3,0.6,1.2,1.4l-1.2,13.5c-0.1,0.7-0.6,1.2-1.2,1.2
				s-1.1-0.5-1.2-1.2L132.3,78.1z M134.7,95.3c1.4,0,2.3,1,2.3,2.3v0.3c0,1.3-1,2.3-2.3,2.3c-1.3,0-2.3-1-2.3-2.3v-0.3
				C132.3,96.2,133.4,95.3,134.7,95.3z"/>
			<path fill="#E5E6E7" d="M142.3,78.1c-0.1-0.8,0.4-1.4,1.2-1.4h2.4c0.8,0,1.3,0.6,1.2,1.4l-1.2,13.5c-0.1,0.7-0.6,1.2-1.2,1.2
				s-1.1-0.5-1.2-1.2L142.3,78.1z M144.7,95.3c1.4,0,2.3,1,2.3,2.3v0.3c0,1.3-1,2.3-2.3,2.3c-1.3,0-2.3-1-2.3-2.3v-0.3
				C142.3,96.2,143.3,95.3,144.7,95.3z"/>
			<path fill="#E5E6E7" d="M152.3,78.1c-0.1-0.8,0.4-1.4,1.2-1.4h2.4c0.8,0,1.3,0.6,1.2,1.4l-1.2,13.5c-0.1,0.7-0.6,1.2-1.2,1.2
				s-1.1-0.5-1.2-1.2L152.3,78.1z M154.7,95.3c1.4,0,2.3,1,2.3,2.3v0.3c0,1.3-1,2.3-2.3,2.3c-1.3,0-2.3-1-2.3-2.3v-0.3
				C152.3,96.2,153.3,95.3,154.7,95.3z"/>
			<path fill="#E5E6E7" d="M161.4,90.9c0-7.9,6.4-14.5,14.5-14.5s14.4,6.3,14.4,13.1c0,5.6-3,8.2-6.4,8.2c-2.6,0-4.1-1.1-4.9-2.3
				c-1.2,1.2-2.8,2.3-5.1,2.3c-3.3,0-6-2.4-6-6.3c0-4.7,3.7-8.3,7.5-8.3c2.4,0,3.8,1.1,4.7,2.4l0.1-0.6c0.2-1.1,0.8-1.7,1.7-1.7
				c1,0,1.8,0.8,1.6,2l-1.3,7.1c-0.1,0.6-0.2,1.1-0.2,1.4c0,1.4,1,2.3,2.6,2.3c2.3,0,4.4-2.2,4.4-6.8c0-6.1-5.6-11.8-13.1-11.8
				s-13.2,6-13.2,13.2c0,7.3,5.6,13.2,13.4,13.2c3.2,0,5.5-0.7,7.9-2.1c0.1-0.1,0.3-0.1,0.4-0.1c0.3,0,0.5,0.3,0.5,0.6
				c0,0.3-0.1,0.4-0.3,0.5c-2.4,1.5-5.2,2.3-8.5,2.3C167.7,105.3,161.4,98.8,161.4,90.9z M179.4,89.7c0-2.1-1.5-3.6-3.5-3.6
				c-2.4,0-4.6,2.3-4.6,5.2c0,2.3,1.4,3.6,3.5,3.6C177.2,94.9,179.4,92.5,179.4,89.7z"/>
			<path fill="#E5E6E7" d="M201.9,84c0.8,0,1.3,0.6,1.4,1.3l0.3,2.8c0.1,0.9-0.4,1.5-1.3,1.7c-3.1,0.3-4.8,1.5-4.8,3.6v0.1
				c0,1.9,1.4,3.1,3.8,3.1c1.8,0,3.2-0.6,4.5-1.8c0.3-0.3,0.8-0.5,1.2-0.5c1,0,1.9,0.8,1.9,1.8c0,0.5-0.2,1-0.7,1.4
				c-1.8,1.7-4,2.7-7,2.7c-4.6,0-7.7-2.6-7.7-6.7v-0.1c0-4.2,3-6.1,6.7-6.7l0.2-1.5c0.1-0.7,0.6-1.3,1.4-1.3H201.9z M201.9,81.5
				c-1.4,0-2.3-1-2.3-2.3v-0.3c0-1.3,1-2.3,2.3-2.3c1.4,0,2.4,1,2.4,2.3v0.3C204.2,80.6,203.3,81.5,201.9,81.5z"/>
			<path fill="#E5E6E7" d="M218.1,92.8c-0.8,0-1.3-0.6-1.4-1.3l-0.3-2.8c-0.1-0.9,0.4-1.6,1.3-1.7c3.1-0.3,4.8-1.5,4.8-3.6v-0.1
				c0-1.9-1.4-3.1-3.8-3.1c-1.8,0-3.2,0.6-4.5,1.8c-0.3,0.3-0.8,0.5-1.2,0.5c-1,0-1.9-0.8-1.9-1.8c0-0.5,0.2-1,0.7-1.4
				c1.8-1.7,4-2.7,7-2.7c4.6,0,7.8,2.6,7.8,6.7v0.1c0,4.2-3,6.1-6.7,6.7l-0.1,1.5c-0.1,0.7-0.7,1.3-1.4,1.3H218.1z M218.1,95.3
				c1.4,0,2.4,1,2.4,2.3v0.3c0,1.3-1,2.3-2.4,2.3c-1.4,0-2.3-1-2.3-2.3v-0.3C215.8,96.2,216.8,95.3,218.1,95.3z"/>
		</g>
	</g>
	<g>
		<g>
			<path fill="#FF8100" d="M224.8,68.2c-2,0-3.8-0.8-5.2-2.2l-13.7-14.2c-2.8-2.9-2.7-7.4,0.2-10.2c2.9-2.8,7.4-2.7,10.2,0.2
				l8.2,8.4l29.5-35.4c2.5-3.1,7.1-3.5,10.2-0.9c3.1,2.5,3.5,7.1,0.9,10.2l-34.6,41.6c-1.3,1.6-3.2,2.5-5.3,2.6
				C225,68.2,224.9,68.2,224.8,68.2z"/>
			<path fill="#FFFFFF" d="M259.4,12.1c1.6,0,3.3,0.5,4.6,1.7c3.1,2.5,3.5,7.1,0.9,10.2l-34.6,41.6c-1.3,1.6-3.2,2.5-5.3,2.6
				c-0.1,0-0.2,0-0.3,0c-2,0-3.8-0.8-5.2-2.2l-13.7-14.2c-2.8-2.9-2.7-7.4,0.2-10.2c1.4-1.4,3.2-2,5-2c1.9,0,3.8,0.7,5.2,2.2
				l8.2,8.4l29.5-35.4C255.3,13,257.3,12.1,259.4,12.1 M259.4,6.1L259.4,6.1c-3.9,0-7.6,1.7-10.2,4.8l-25.2,30.3l-3.5-3.6
				c-2.5-2.6-5.9-4-9.5-4c-3.4,0-6.7,1.3-9.2,3.7c-2.5,2.5-4,5.7-4,9.3c-0.1,3.5,1.3,6.9,3.7,9.4l13.7,14.2c2.5,2.6,5.9,4,9.5,4
				c0.2,0,0.3,0,0.5,0c3.7-0.1,7.3-1.9,9.7-4.8l34.6-41.6c4.7-5.6,3.9-13.9-1.7-18.6C265.5,7.2,262.5,6.1,259.4,6.1L259.4,6.1z"/>
		</g>
	</g>
	<g>
		<path fill="#E5E6E7" d="M170.4,117.5c1.4,0,2.3,1,2.3,2.3v0.3c0,1.3-0.9,2.3-2.3,2.3c-1.4,0-2.3-1-2.3-2.3v-0.3
			C168.2,118.5,169.1,117.5,170.4,117.5z M179.2,117.5c1.4,0,2.3,1,2.3,2.3v0.3c0,1.3-0.9,2.3-2.3,2.3c-1.4,0-2.3-1-2.3-2.3v-0.3
			C176.9,118.5,177.8,117.5,179.2,117.5z M187.9,117.5c1.4,0,2.3,1,2.3,2.3v0.3c0,1.3-0.9,2.3-2.3,2.3s-2.3-1-2.3-2.3v-0.3
			C185.6,118.5,186.5,117.5,187.9,117.5z"/>
	</g>
	<g>
		<path fill="#FFFFFF" d="M22.5,152.2h79.2c4.6,0,8.3-3.7,8.3-8.3V93.4c0-4.6-3.7-8.3-8.3-8.3h-8.6V72.9c0-1.4-1.6-2.2-2.7-1.4
			L72.2,85.1H22.5c-4.6,0-8.3,3.7-8.3,8.3v50.5C14.2,148.5,17.9,152.2,22.5,152.2z"/>
		<path fill="#74BD27" d="M101.7,154.2H22.5c-5.7,0-10.3-4.6-10.3-10.3V93.4c0-5.7,4.6-10.3,10.3-10.3h49L89.2,70
			c0.6-0.5,1.4-0.7,2.2-0.7c2,0,3.6,1.6,3.6,3.6v10.2h6.7c5.7,0,10.3,4.6,10.3,10.3v50.5C112,149.6,107.3,154.2,101.7,154.2z
			 M22.5,87c-3.5,0-6.4,2.9-6.4,6.4v50.5c0,3.5,2.9,6.4,6.4,6.4h79.2c3.5,0,6.4-2.9,6.4-6.4V93.4c0-3.5-2.9-6.4-6.4-6.4H91.1V73.4
			L72.8,87H22.5z"/>
	</g>
	<g>
		<g>
			<path fill="#74BD27" d="M61.1,132.7c-7.5,0-15-2.1-21.5-6.2c-1.6-1-2-3.1-1-4.7c1-1.6,3.1-2,4.7-1c10.9,6.9,24.9,6.9,35.8,0
				c1.6-1,3.7-0.5,4.7,1c1,1.6,0.5,3.7-1,4.7C76.1,130.7,68.6,132.7,61.1,132.7z"/>
			<g>
				<circle fill="#74BD27" cx="51.6" cy="110.5" r="3.2"/>
				<circle fill="#74BD27" cx="70.6" cy="110.5" r="3.2"/>
			</g>
		</g>
	</g>
</g>
</svg>
