<?xml version="1.0" encoding="utf-8"?>
<!-- Generator: Adobe Illustrator 18.0.0, SVG Export Plug-In . SVG Version: 6.00 Build 0)  -->
<!DOCTYPE svg PUBLIC "-//W3C//DTD SVG 1.1//EN" "http://www.w3.org/Graphics/SVG/1.1/DTD/svg11.dtd">
<svg version="1.1" id="Layer_1" xmlns="http://www.w3.org/2000/svg" xmlns:xlink="http://www.w3.org/1999/xlink" x="0px" y="0px"
	 viewBox="0 0 418.3 231.7" enable-background="new 0 0 418.3 231.7" xml:space="preserve">
<g>
	<path fill="#E5E6E7" d="M20.3,52.6c-0.8,0-1.4-0.6-1.4-1.4v-1.6c0-0.3,0.2-0.5,0.5-0.5s0.5,0.2,0.5,0.5v1.6c0,0.3,0.4,0.5,0.6,0.3
		l1.2-0.9c0.2-0.2,0.5-0.1,0.7,0.1c0.2,0.2,0.1,0.5-0.1,0.7l-1.2,0.9C20.8,52.5,20.6,52.6,20.3,52.6z M24.3,49.7
		c-0.2,0-0.3-0.1-0.4-0.2c-0.2-0.2-0.1-0.5,0.1-0.7l4-3c0.2-0.2,0.5-0.1,0.7,0.1c0.2,0.2,0.1,0.5-0.1,0.7l-4,3
		C24.6,49.7,24.5,49.7,24.3,49.7z M19.4,47.1c-0.3,0-0.5-0.2-0.5-0.5v-1.1H16c-0.3,0-0.5-0.2-0.5-0.5s0.2-0.5,0.5-0.5h3.9v2.1
		C19.9,46.9,19.7,47.1,19.4,47.1z M95.5,45.5h-0.5c-0.3,0-0.5-0.2-0.5-0.5s0.2-0.5,0.5-0.5h0.5c1.3,0,2.6-0.7,3.2-1.9
		c0.1-0.2,0.4-0.3,0.7-0.2c0.2,0.1,0.3,0.4,0.2,0.7C98.7,44.6,97.2,45.5,95.5,45.5z M91.9,45.5h-5c-0.3,0-0.5-0.2-0.5-0.5
		s0.2-0.5,0.5-0.5h5c0.3,0,0.5,0.2,0.5,0.5S92.2,45.5,91.9,45.5z M83.9,45.5h-5c-0.3,0-0.5-0.2-0.5-0.5s0.2-0.5,0.5-0.5h5
		c0.3,0,0.5,0.2,0.5,0.5S84.2,45.5,83.9,45.5z M75.9,45.5h-5c-0.3,0-0.5-0.2-0.5-0.5s0.2-0.5,0.5-0.5h5c0.3,0,0.5,0.2,0.5,0.5
		S76.2,45.5,75.9,45.5z M67.9,45.5h-5c-0.3,0-0.5-0.2-0.5-0.5s0.2-0.5,0.5-0.5h5c0.3,0,0.5,0.2,0.5,0.5S68.2,45.5,67.9,45.5z
		 M59.9,45.5h-5c-0.3,0-0.5-0.2-0.5-0.5s0.2-0.5,0.5-0.5h5c0.3,0,0.5,0.2,0.5,0.5S60.2,45.5,59.9,45.5z M51.9,45.5h-5
		c-0.3,0-0.5-0.2-0.5-0.5s0.2-0.5,0.5-0.5h5c0.3,0,0.5,0.2,0.5,0.5S52.2,45.5,51.9,45.5z M43.9,45.5h-5c-0.3,0-0.5-0.2-0.5-0.5
		s0.2-0.5,0.5-0.5h5c0.3,0,0.5,0.2,0.5,0.5S44.2,45.5,43.9,45.5z M35.9,45.5h-5c-0.3,0-0.5-0.2-0.5-0.5s0.2-0.5,0.5-0.5h5
		c0.3,0,0.5,0.2,0.5,0.5S36.2,45.5,35.9,45.5z M13.1,45c-0.1,0-0.2,0-0.2-0.1c-1.6-0.8-2.6-2.4-2.6-4.2v-0.3c0-0.3,0.2-0.5,0.5-0.5
		s0.5,0.2,0.5,0.5v0.3c0,1.4,0.8,2.7,2.1,3.4c0.2,0.1,0.3,0.4,0.2,0.7C13.4,44.9,13.3,45,13.1,45z M99.7,40.5
		c-0.3,0-0.5-0.2-0.5-0.5v-5c0-0.3,0.2-0.5,0.5-0.5s0.5,0.2,0.5,0.5v5C100.2,40.2,100,40.5,99.7,40.5z M10.7,37.9
		c-0.3,0-0.5-0.2-0.5-0.5v-5c0-0.3,0.2-0.5,0.5-0.5s0.5,0.2,0.5,0.5v5C11.2,37.7,11,37.9,10.7,37.9z M99.7,32.5
		c-0.3,0-0.5-0.2-0.5-0.5v-5c0-0.3,0.2-0.5,0.5-0.5s0.5,0.2,0.5,0.5v5C100.2,32.2,100,32.5,99.7,32.5z M10.7,29.9
		c-0.3,0-0.5-0.2-0.5-0.5v-5c0-0.3,0.2-0.5,0.5-0.5s0.5,0.2,0.5,0.5v5C11.2,29.7,11,29.9,10.7,29.9z M99.7,24.5
		c-0.3,0-0.5-0.2-0.5-0.5v-5c0-0.3,0.2-0.5,0.5-0.5s0.5,0.2,0.5,0.5v5C100.2,24.2,100,24.5,99.7,24.5z M10.7,21.9
		c-0.3,0-0.5-0.2-0.5-0.5v-5c0-0.3,0.2-0.5,0.5-0.5s0.5,0.2,0.5,0.5v5C11.2,21.7,11,21.9,10.7,21.9z M99.7,16.5
		c-0.3,0-0.5-0.2-0.5-0.5v-0.4c0-1.4-0.8-2.7-2-3.3c-0.2-0.1-0.3-0.4-0.2-0.7c0.1-0.2,0.4-0.3,0.7-0.2c1.6,0.8,2.6,2.4,2.6,4.2V16
		C100.2,16.2,100,16.5,99.7,16.5z M11.3,14c-0.1,0-0.2,0-0.2-0.1c-0.2-0.1-0.3-0.4-0.2-0.7c0.8-1.5,2.4-2.4,4.1-2.4h0.5
		c0.3,0,0.5,0.2,0.5,0.5s-0.2,0.5-0.5,0.5H15c-1.4,0-2.6,0.7-3.3,1.9C11.6,13.9,11.5,14,11.3,14z M95.5,11.9h-5
		c-0.3,0-0.5-0.2-0.5-0.5s0.2-0.5,0.5-0.5h5c0.3,0,0.5,0.2,0.5,0.5S95.8,11.9,95.5,11.9z M87.5,11.9h-5c-0.3,0-0.5-0.2-0.5-0.5
		s0.2-0.5,0.5-0.5h5c0.3,0,0.5,0.2,0.5,0.5S87.8,11.9,87.5,11.9z M79.5,11.9h-5c-0.3,0-0.5-0.2-0.5-0.5s0.2-0.5,0.5-0.5h5
		c0.3,0,0.5,0.2,0.5,0.5S79.8,11.9,79.5,11.9z M71.5,11.9h-5c-0.3,0-0.5-0.2-0.5-0.5s0.2-0.5,0.5-0.5h5c0.3,0,0.5,0.2,0.5,0.5
		S71.8,11.9,71.5,11.9z M63.5,11.9h-5c-0.3,0-0.5-0.2-0.5-0.5s0.2-0.5,0.5-0.5h5c0.3,0,0.5,0.2,0.5,0.5S63.8,11.9,63.5,11.9z
		 M55.5,11.9h-5c-0.3,0-0.5-0.2-0.5-0.5s0.2-0.5,0.5-0.5h5c0.3,0,0.5,0.2,0.5,0.5S55.8,11.9,55.5,11.9z M47.5,11.9h-5
		c-0.3,0-0.5-0.2-0.5-0.5s0.2-0.5,0.5-0.5h5c0.3,0,0.5,0.2,0.5,0.5S47.8,11.9,47.5,11.9z M39.5,11.9h-5c-0.3,0-0.5-0.2-0.5-0.5
		s0.2-0.5,0.5-0.5h5c0.3,0,0.5,0.2,0.5,0.5S39.8,11.9,39.5,11.9z M31.5,11.9h-5c-0.3,0-0.5-0.2-0.5-0.5s0.2-0.5,0.5-0.5h5
		c0.3,0,0.5,0.2,0.5,0.5S31.8,11.9,31.5,11.9z M23.5,11.9h-5c-0.3,0-0.5-0.2-0.5-0.5s0.2-0.5,0.5-0.5h5c0.3,0,0.5,0.2,0.5,0.5
		S23.8,11.9,23.5,11.9z"/>
	<path fill="#E5E6E7" d="M405.2,184.2h-0.5c-0.3,0-0.5-0.2-0.5-0.5s0.2-0.5,0.5-0.5h0.5c1.4,0,2.6-0.7,3.3-1.9
		c0.1-0.2,0.4-0.3,0.7-0.2c0.2,0.1,0.3,0.4,0.2,0.7C408.5,183.2,407,184.2,405.2,184.2z M401.7,184.2h-5c-0.3,0-0.5-0.2-0.5-0.5
		s0.2-0.5,0.5-0.5h5c0.3,0,0.5,0.2,0.5,0.5S402,184.2,401.7,184.2z M393.7,184.2h-5c-0.3,0-0.5-0.2-0.5-0.5s0.2-0.5,0.5-0.5h5
		c0.3,0,0.5,0.2,0.5,0.5S394,184.2,393.7,184.2z M385.7,184.2h-5c-0.3,0-0.5-0.2-0.5-0.5s0.2-0.5,0.5-0.5h5c0.3,0,0.5,0.2,0.5,0.5
		S386,184.2,385.7,184.2z M377.7,184.2h-5c-0.3,0-0.5-0.2-0.5-0.5s0.2-0.5,0.5-0.5h5c0.3,0,0.5,0.2,0.5,0.5S378,184.2,377.7,184.2z
		 M369.7,184.2h-5c-0.3,0-0.5-0.2-0.5-0.5s0.2-0.5,0.5-0.5h5c0.3,0,0.5,0.2,0.5,0.5S370,184.2,369.7,184.2z M361.7,184.2h-5
		c-0.3,0-0.5-0.2-0.5-0.5s0.2-0.5,0.5-0.5h5c0.3,0,0.5,0.2,0.5,0.5S362,184.2,361.7,184.2z M353.7,184.2h-5c-0.3,0-0.5-0.2-0.5-0.5
		s0.2-0.5,0.5-0.5h5c0.3,0,0.5,0.2,0.5,0.5S354,184.2,353.7,184.2z M345.7,184.2h-5c-0.3,0-0.5-0.2-0.5-0.5s0.2-0.5,0.5-0.5h5
		c0.3,0,0.5,0.2,0.5,0.5S346,184.2,345.7,184.2z M337.7,184.2h-5c-0.3,0-0.5-0.2-0.5-0.5s0.2-0.5,0.5-0.5h5c0.3,0,0.5,0.2,0.5,0.5
		S338,184.2,337.7,184.2z M329.7,184.2h-5c-0.3,0-0.5-0.2-0.5-0.5s0.2-0.5,0.5-0.5h5c0.3,0,0.5,0.2,0.5,0.5S330,184.2,329.7,184.2z
		 M322.8,183.7c-0.1,0-0.2,0-0.2-0.1c-1.6-0.8-2.6-2.4-2.6-4.2v-0.4c0-0.3,0.2-0.5,0.5-0.5s0.5,0.2,0.5,0.5v0.4c0,1.4,0.8,2.7,2,3.3
		c0.2,0.1,0.3,0.4,0.2,0.7C323.1,183.6,323,183.7,322.8,183.7z M409.5,179.1c-0.3,0-0.5-0.2-0.5-0.5v-5c0-0.3,0.2-0.5,0.5-0.5
		s0.5,0.2,0.5,0.5v5C410,178.9,409.8,179.1,409.5,179.1z M320.5,176.6c-0.3,0-0.5-0.2-0.5-0.5v-5c0-0.3,0.2-0.5,0.5-0.5
		s0.5,0.2,0.5,0.5v5C321,176.3,320.8,176.6,320.5,176.6z M409.5,171.1c-0.3,0-0.5-0.2-0.5-0.5v-5c0-0.3,0.2-0.5,0.5-0.5
		s0.5,0.2,0.5,0.5v5C410,170.9,409.8,171.1,409.5,171.1z M320.5,168.6c-0.3,0-0.5-0.2-0.5-0.5v-5c0-0.3,0.2-0.5,0.5-0.5
		s0.5,0.2,0.5,0.5v5C321,168.3,320.8,168.6,320.5,168.6z M409.5,163.1c-0.3,0-0.5-0.2-0.5-0.5v-5c0-0.3,0.2-0.5,0.5-0.5
		s0.5,0.2,0.5,0.5v5C410,162.9,409.8,163.1,409.5,163.1z M320.5,160.6c-0.3,0-0.5-0.2-0.5-0.5v-5c0-0.3,0.2-0.5,0.5-0.5
		s0.5,0.2,0.5,0.5v5C321,160.3,320.8,160.6,320.5,160.6z M409.5,155.1c-0.3,0-0.5-0.2-0.5-0.5v-0.3c0-1.4-0.8-2.7-2.1-3.4
		c-0.2-0.1-0.3-0.4-0.2-0.7s0.4-0.3,0.7-0.2c1.6,0.8,2.6,2.4,2.6,4.2v0.3C410,154.9,409.8,155.1,409.5,155.1z M321.1,152.7
		c-0.1,0-0.2,0-0.3-0.1c-0.2-0.1-0.3-0.4-0.2-0.7c0.8-1.5,2.4-2.4,4.1-2.4h0.5c0.3,0,0.5,0.2,0.5,0.5s-0.2,0.5-0.5,0.5h-0.5
		c-1.3,0-2.6,0.7-3.2,1.9C321.4,152.6,321.2,152.7,321.1,152.7z M404.2,150.5h-3.9v-2.1c0-0.3,0.2-0.5,0.5-0.5s0.5,0.2,0.5,0.5v1.1
		h2.9c0.3,0,0.5,0.2,0.5,0.5S404.5,150.5,404.2,150.5z M389.3,150.5h-5c-0.3,0-0.5-0.2-0.5-0.5s0.2-0.5,0.5-0.5h5
		c0.3,0,0.5,0.2,0.5,0.5S389.6,150.5,389.3,150.5z M381.3,150.5h-5c-0.3,0-0.5-0.2-0.5-0.5s0.2-0.5,0.5-0.5h5c0.3,0,0.5,0.2,0.5,0.5
		S381.6,150.5,381.3,150.5z M373.3,150.5h-5c-0.3,0-0.5-0.2-0.5-0.5s0.2-0.5,0.5-0.5h5c0.3,0,0.5,0.2,0.5,0.5
		S373.6,150.5,373.3,150.5z M365.3,150.5h-5c-0.3,0-0.5-0.2-0.5-0.5s0.2-0.5,0.5-0.5h5c0.3,0,0.5,0.2,0.5,0.5
		S365.6,150.5,365.3,150.5z M357.3,150.5h-5c-0.3,0-0.5-0.2-0.5-0.5s0.2-0.5,0.5-0.5h5c0.3,0,0.5,0.2,0.5,0.5
		S357.6,150.5,357.3,150.5z M349.3,150.5h-5c-0.3,0-0.5-0.2-0.5-0.5s0.2-0.5,0.5-0.5h5c0.3,0,0.5,0.2,0.5,0.5
		S349.6,150.5,349.3,150.5z M341.3,150.5h-5c-0.3,0-0.5-0.2-0.5-0.5s0.2-0.5,0.5-0.5h5c0.3,0,0.5,0.2,0.5,0.5
		S341.6,150.5,341.3,150.5z M333.3,150.5h-5c-0.3,0-0.5-0.2-0.5-0.5s0.2-0.5,0.5-0.5h5c0.3,0,0.5,0.2,0.5,0.5
		S333.6,150.5,333.3,150.5z M391.9,149.3c-0.2,0-0.3-0.1-0.4-0.2c-0.2-0.2-0.1-0.5,0.1-0.7l4-3c0.2-0.2,0.5-0.1,0.7,0.1
		c0.2,0.2,0.1,0.5-0.1,0.7l-4,3C392.1,149.2,392,149.3,391.9,149.3z M400.8,145.9c-0.3,0-0.5-0.2-0.5-0.5v-1.6
		c0-0.3-0.4-0.5-0.6-0.3l-1.2,0.9c-0.2,0.2-0.5,0.1-0.7-0.1c-0.2-0.2-0.1-0.5,0.1-0.7l1.2-0.9c0.2-0.2,0.5-0.3,0.8-0.3
		c0.8,0,1.4,0.6,1.4,1.4v1.6C401.3,145.7,401.1,145.9,400.8,145.9z"/>
	<path fill="#E5E6E7" d="M305.4,188.3h-219C52,188.3,24,160.4,24,125.9v-24.6C24,66.9,52,38.9,86.4,38.9h219
		c34.4,0,62.4,27.9,62.4,62.4v24.6C367.8,160.4,339.9,188.3,305.4,188.3z"/>
	<path fill="#FFFFFF" d="M305.4,178.3h-219c-28.9,0-52.4-23.5-52.4-52.4v-24.6c0-28.9,23.5-52.4,52.4-52.4h219
		c28.9,0,52.4,23.5,52.4,52.4v24.6C357.8,154.8,334.3,178.3,305.4,178.3z M86.4,78.9C74.1,78.9,64,89,64,101.3v24.6
		c0,12.3,10,22.4,22.4,22.4h219c12.3,0,22.4-10,22.4-22.4v-24.6c0-12.3-10-22.4-22.4-22.4H86.4z"/>
	<path fill="#F3B400" d="M131.2,75.9H100c-1.6,0-2.9-1.3-2.9-2.9V54.3c0-1.6,1.3-2.9,2.9-2.9h31.2c1.6,0,2.9,1.3,2.9,2.9V73
		C134.1,74.6,132.8,75.9,131.2,75.9z"/>
	<path fill="#F3B400" d="M171.6,75.9h-31.2c-1.6,0-2.9-1.3-2.9-2.9V54.3c0-1.6,1.3-2.9,2.9-2.9h31.2c1.6,0,2.9,1.3,2.9,2.9V73
		C174.5,74.6,173.2,75.9,171.6,75.9z"/>
	<path fill="#D75F58" d="M212.1,75.9h-31.2c-1.6,0-2.9-1.3-2.9-2.9V54.3c0-1.6,1.3-2.9,2.9-2.9h31.2c1.6,0,2.9,1.3,2.9,2.9V73
		C215,74.6,213.7,75.9,212.1,75.9z"/>
	<path fill="#D75F58" d="M252.5,75.9h-31.2c-1.6,0-2.9-1.3-2.9-2.9V54.3c0-1.6,1.3-2.9,2.9-2.9h31.2c1.6,0,2.9,1.3,2.9,2.9V73
		C255.4,74.6,254.1,75.9,252.5,75.9z"/>
	<path fill="#D75F58" d="M293,75.9h-31.2c-1.6,0-2.9-1.3-2.9-2.9V54.3c0-1.6,1.3-2.9,2.9-2.9H293c1.6,0,2.9,1.3,2.9,2.9V73
		C295.9,74.6,294.6,75.9,293,75.9z"/>
	<path fill="#8061C8" d="M131.2,175.5H100c-1.6,0-2.9-1.3-2.9-2.9v-18.7c0-1.6,1.3-2.9,2.9-2.9h31.2c1.6,0,2.9,1.3,2.9,2.9v18.7
		C134.1,174.2,132.8,175.5,131.2,175.5z"/>
	<path fill="#8061C8" d="M171.6,175.5h-31.2c-1.6,0-2.9-1.3-2.9-2.9v-18.7c0-1.6,1.3-2.9,2.9-2.9h31.2c1.6,0,2.9,1.3,2.9,2.9v18.7
		C174.5,174.2,173.2,175.5,171.6,175.5z"/>
	<path fill="#2F91C7" d="M212.1,175.5h-31.2c-1.6,0-2.9-1.3-2.9-2.9v-18.7c0-1.6,1.3-2.9,2.9-2.9h31.2c1.6,0,2.9,1.3,2.9,2.9v18.7
		C215,174.2,213.7,175.5,212.1,175.5z"/>
	<path fill="#2F91C7" d="M252.5,175.5h-31.2c-1.6,0-2.9-1.3-2.9-2.9v-18.7c0-1.6,1.3-2.9,2.9-2.9h31.2c1.6,0,2.9,1.3,2.9,2.9v18.7
		C255.4,174.2,254.1,175.5,252.5,175.5z"/>
	<path fill="#2F91C7" d="M293,175.5h-31.2c-1.6,0-2.9-1.3-2.9-2.9v-18.7c0-1.6,1.3-2.9,2.9-2.9H293c1.6,0,2.9,1.3,2.9,2.9v18.7
		C295.9,174.2,294.6,175.5,293,175.5z"/>
	<path fill="#74BD27" d="M251.2,142.4h-150c-2.3,0-4.2-1.9-4.2-4.2V88.7c0-2.3,1.9-4.2,4.2-4.2h150c2.3,0,4.2,1.9,4.2,4.2v49.6
		C255.4,140.6,253.5,142.4,251.2,142.4z"/>
	<path fill="#AEAFB0" d="M295,142.4h-30c-2.5,0-4.4-2-4.4-4.4V88.9c0-2.5,2-4.4,4.4-4.4h30c11.3,0,20.4,9.1,20.4,20.4V122
		C315.4,133.3,306.3,142.4,295,142.4z"/>
	<path fill="#FF8100" d="M93.9,22.7l2.6-2.6c0.8-0.8,0.8-2,0-2.8c-0.8-0.8-2-0.8-2.8,0L91,19.9l-2.6-2.6c-0.8-0.8-2-0.8-2.8,0
		c-0.8,0.8-0.8,2,0,2.8l2.6,2.6l-2.6,2.6c-0.8,0.8-0.8,2,0,2.8c0.4,0.4,0.9,0.6,1.4,0.6s1-0.2,1.4-0.6l2.6-2.6l2.6,2.6
		c0.4,0.4,0.9,0.6,1.4,0.6s1-0.2,1.4-0.6c0.8-0.8,0.8-2,0-2.8L93.9,22.7z"/>
	<path fill="#106580" d="M118.9,58.3c-0.2,0-0.3,0-0.5-0.1c-0.7-0.2-1.2-1-1-1.7c0.2-0.8,0.9-1.3,1.7-1.2c0.8,0.1,1.4,0.9,1.3,1.7
		c0,0.1,0,0.2-0.1,0.3C120.1,57.9,119.6,58.3,118.9,58.3z M119.7,53.1c-0.8,0-1.5-0.7-1.5-1.5c0-0.1,0-0.2,0-0.2
		c0.1-0.8,0.9-1.4,1.7-1.3c0.8,0.1,1.4,0.8,1.3,1.6C121.1,52.5,120.5,53.1,119.7,53.1z M119.8,47.9c-0.7,0-1.4-0.5-1.5-1.3
		c0-0.1,0-0.2,0-0.3c0-0.8,0.7-1.5,1.5-1.5c0.8,0,1.5,0.6,1.5,1.4c0,0.8-0.5,1.4-1.3,1.6C120,47.8,119.9,47.9,119.8,47.9z
		 M119.3,42.6c-0.6,0-1.2-0.4-1.4-1c0-0.1-0.1-0.2-0.1-0.3c-0.1-0.8,0.5-1.6,1.3-1.7c0.8-0.1,1.5,0.4,1.7,1.2c0.2,0.7-0.3,1.5-1,1.7
		C119.6,42.6,119.4,42.6,119.3,42.6z M117.8,37.6c-0.6,0-1.2-0.4-1.4-0.9c-0.3-0.7,0-1.6,0.7-1.9c0.7-0.4,1.6-0.1,2,0.7
		c0,0.1,0.1,0.2,0.1,0.3c0.2,0.8-0.2,1.6-1,1.9C118,37.6,117.9,37.6,117.8,37.6z M115.3,33c-0.4,0-0.9-0.2-1.2-0.6
		c0,0-0.1-0.1-0.1-0.1c-0.5-0.7-0.3-1.6,0.4-2.1c0.7-0.5,1.6-0.3,2.1,0.4c0.5,0.6,0.3,1.5-0.3,2C115.9,32.9,115.6,33,115.3,33z
		 M111.7,29.1c-0.4,0-0.7-0.1-1-0.4c-0.6-0.5-0.7-1.4-0.2-2.1c0.5-0.6,1.5-0.8,2.1-0.2c0,0,0.1,0.1,0.1,0.1c0.6,0.6,0.6,1.5,0,2.1
		C112.5,29,112.1,29.1,111.7,29.1z M107.4,26.1c-0.3,0-0.5-0.1-0.7-0.2c-0.7-0.4-1-1.3-0.6-2c0.4-0.7,1.3-1,2-0.7
		c0.1,0,0.1,0.1,0.2,0.1c0.7,0.5,0.9,1.4,0.4,2.1C108.4,25.9,107.9,26.1,107.4,26.1z M102.5,24.2c-0.1,0-0.2,0-0.3,0
		c-0.8-0.1-1.3-0.9-1.2-1.7c0.1-0.8,0.9-1.4,1.7-1.3c0,0,0.1,0,0.1,0c0.8,0.2,1.3,1,1.2,1.8C103.8,23.8,103.2,24.2,102.5,24.2z"/>
	<g>
		<path fill="#FF5F58" d="M323,216.2c-0.8,0-1.4-0.5-1.5-1.3L321,212c-0.2-0.9,0.3-1.6,1.2-1.7c3.1-0.4,4.8-1.7,4.8-3.8l0-0.1
			c-0.1-1.9-1.6-3.1-4-3.1c-1.8,0.1-3.2,0.8-4.5,2c-0.3,0.3-0.8,0.5-1.2,0.5c-1,0-1.9-0.8-1.9-1.8c0-0.5,0.2-1,0.6-1.5
			c1.7-1.7,3.9-2.9,7-3c4.7-0.2,8,2.3,8.1,6.5l0,0.1c0.2,4.2-2.8,6.3-6.5,7l-0.1,1.5c-0.1,0.7-0.6,1.4-1.4,1.4L323,216.2z
			 M323.1,218.7c1.4,0,2.4,0.9,2.5,2.2l0,0.3c0,1.3-0.9,2.4-2.3,2.4c-1.4,0-2.4-0.9-2.5-2.2l0-0.3
			C320.7,219.8,321.7,218.7,323.1,218.7z"/>
	</g>
	<path fill="#106580" d="M307,213c-0.1,0-0.2,0-0.4,0c0,0-0.1,0-0.1,0c-0.8-0.3-1.2-1.1-0.9-1.9c0.3-0.8,1.1-1.2,1.9-1
		c0.8,0.2,1.2,1,1,1.8C308.3,212.5,307.7,213,307,213z M302,211.4c-0.2,0-0.4,0-0.6-0.1c-0.7-0.3-1.1-1.1-0.9-1.9
		c0.3-0.8,1.1-1.2,1.9-0.9c0.1,0,0.1,0.1,0.2,0.1c0.7,0.4,1,1.3,0.7,2C303.1,211.1,302.6,211.4,302,211.4z M297.2,209.3
		c-0.2,0-0.3,0-0.5-0.1c-0.1,0-0.3-0.1-0.4-0.2c-0.7-0.5-0.9-1.4-0.4-2.1c0.4-0.7,1.3-0.9,2-0.5c0.6,0.3,1,1.1,0.7,1.8
		C298.4,208.9,297.8,209.3,297.2,209.3z M292.6,206.7c-0.3,0-0.6-0.1-0.8-0.3c-0.7-0.5-0.9-1.4-0.4-2.1c0.5-0.7,1.4-0.9,2.1-0.4l0,0
		c0.7,0.5,0.9,1.4,0.4,2.1C293.6,206.5,293.1,206.7,292.6,206.7z M288.5,203.5c-0.4,0-0.7-0.1-1-0.4c-0.5-0.5-0.7-1.3-0.2-1.9
		c0.5-0.7,1.4-0.9,2.1-0.4c0.2,0.1,0.3,0.3,0.4,0.4c0.5,0.7,0.3,1.6-0.4,2.1C289.1,203.4,288.8,203.5,288.5,203.5z M284.9,199.7
		c-0.4,0-0.8-0.1-1.1-0.4c-0.1-0.1-0.1-0.2-0.2-0.2c-0.5-0.7-0.3-1.6,0.4-2.1c0.7-0.4,1.5-0.3,2,0.3c0.5,0.6,0.4,1.4-0.1,2
		C285.6,199.5,285.3,199.7,284.9,199.7z M281.9,195.4c-0.5,0-1.1-0.3-1.3-0.8c-0.4-0.7-0.2-1.5,0.5-2c0.7-0.5,1.6-0.3,2.1,0.4
		c0.1,0.1,0.1,0.2,0.2,0.4c0.3,0.8-0.2,1.6-0.9,1.9C282.2,195.4,282,195.4,281.9,195.4z M279.6,190.7c-0.5,0-1-0.2-1.2-0.7
		c-0.1-0.1-0.1-0.2-0.2-0.4c-0.3-0.8,0.2-1.6,0.9-1.9c0.7-0.2,1.5,0.1,1.8,0.8c0.3,0.7,0.1,1.5-0.5,1.9
		C280.1,190.6,279.8,190.7,279.6,190.7z M277.9,185.7c-0.7,0-1.2-0.4-1.4-1.1c-0.2-0.8,0.2-1.6,1-1.9c0.8-0.3,1.6,0.2,1.9,0.9
		c0,0,0,0.1,0,0.1c0.2,0.8-0.3,1.6-1.1,1.8C278.2,185.7,278,185.7,277.9,185.7z M276.9,180.5c-0.7,0-1.3-0.5-1.5-1.1
		c0-0.1,0-0.3,0-0.4c0-0.8,0.7-1.5,1.5-1.5c0.8,0,1.4,0.6,1.5,1.3c0.1,0.7-0.4,1.4-1.1,1.6C277.2,180.5,277,180.5,276.9,180.5z
		 M276.5,175.3c-0.8,0-1.5-0.7-1.5-1.5s0.7-1.5,1.5-1.5s1.5,0.7,1.5,1.5v0C278,174.6,277.3,175.3,276.5,175.3z M276.7,170
		c-0.1,0-0.2,0-0.4,0c-0.7-0.2-1.2-0.9-1.1-1.6c0.1-0.8,0.7-1.3,1.5-1.3l0,0c0.8,0,1.5,0.7,1.5,1.5c0,0.1,0,0.3,0,0.4
		C277.9,169.6,277.3,170,276.7,170z M277.4,164.8c-0.1,0-0.1,0-0.2,0c-0.8-0.1-1.4-0.9-1.3-1.7c0-0.1,0-0.2,0.1-0.3
		c0.3-0.8,1.1-1.2,1.9-0.9c0.7,0.2,1.2,1,1,1.7C278.7,164.3,278.1,164.8,277.4,164.8z"/>
	<g>
		<path fill="#FFFFFF" d="M53.1,184.3h60.5c3.5,0,6.3-2.8,6.3-6.3v-38.6c0-3.5-2.8-6.3-6.3-6.3h-6.6v-9.3c0-1.1-1.2-1.7-2.1-1
			L91,133H53.1c-3.5,0-6.3,2.8-6.3,6.3v38.6C46.7,181.4,49.5,184.3,53.1,184.3z"/>
		<path fill="#2F91C7" d="M113.5,185.8H53.1c-4.3,0-7.8-3.5-7.8-7.8v-38.6c0-4.3,3.5-7.8,7.8-7.8h37.5l13.5-10
			c0.5-0.4,1.1-0.6,1.7-0.6c1.5,0,2.8,1.2,2.8,2.8v7.8h5.1c4.3,0,7.8,3.5,7.8,7.8v38.6C121.4,182.3,117.8,185.8,113.5,185.8z
			 M53.1,134.5c-2.7,0-4.9,2.2-4.9,4.9v38.6c0,2.7,2.2,4.9,4.9,4.9h60.5c2.7,0,4.9-2.2,4.9-4.9v-38.6c0-2.7-2.2-4.9-4.9-4.9h-8.1
			v-10.4l-13.9,10.4H53.1z"/>
	</g>
	<g>
		<g>
			<path fill="#2F91C7" d="M81.9,140.3c1.1,0,1.9,0.9,1.9,1.9v1c2.7,0.3,4.9,1.2,7,2.5c0.7,0.4,1.4,1.1,1.4,2.2
				c0,1.4-1.1,2.5-2.5,2.5c-0.5,0-0.9-0.1-1.4-0.4c-1.6-1-3.1-1.6-4.7-2v8.7c6.9,1.7,9.8,4.5,9.8,9.3c0,5-3.9,8.3-9.6,8.8v2.7
				c0,1.1-0.9,1.9-1.9,1.9s-2-0.9-2-1.9v-2.8c-3.4-0.4-6.5-1.6-9.3-3.5c-0.8-0.5-1.2-1.2-1.2-2.2c0-1.4,1.1-2.5,2.5-2.5
				c0.5,0,1.1,0.2,1.5,0.5c2.1,1.5,4.2,2.6,6.7,3v-8.9c-6.6-1.7-9.7-4.2-9.7-9.3c0-4.8,3.9-8.2,9.5-8.7v-1
				C79.9,141.1,80.8,140.3,81.9,140.3z M80.1,155.7v-8c-2.9,0.3-4.3,1.8-4.3,3.8C75.8,153.4,76.6,154.6,80.1,155.7z M83.7,162v8.2
				c2.9-0.3,4.5-1.8,4.5-3.9C88.2,164.3,87.2,163.1,83.7,162z"/>
		</g>
	</g>
	<g>
		<circle fill="#E5E6E7" cx="270.9" cy="28.8" r="2.9"/>
		<circle fill="#E5E6E7" cx="281.6" cy="28.8" r="2.9"/>
		<circle fill="#E5E6E7" cx="292.3" cy="28.8" r="2.9"/>
	</g>
	<g>
		<circle fill="#E5E6E7" cx="376.8" cy="171.9" r="2.9"/>
		<circle fill="#E5E6E7" cx="387.4" cy="171.9" r="2.9"/>
		<circle fill="#E5E6E7" cx="398.1" cy="171.9" r="2.9"/>
	</g>
	<g>
		<g>
			<circle fill="#2F91C7" cx="49.7" cy="196.7" r="2.9"/>
			<circle fill="#2F91C7" cx="60.3" cy="196.7" r="2.9"/>
			<circle fill="#2F91C7" cx="71" cy="196.7" r="2.9"/>
		</g>
	</g>
	<g>
		<path fill="#FFFFFF" d="M225,126.8c-0.9,0-1.8-0.4-2.5-1L216,119c-1.3-1.4-1.3-3.5,0.1-4.9c1.4-1.3,3.5-1.3,4.9,0.1l3.9,4l14-16.9
			c1.2-1.5,3.4-1.7,4.8-0.4c1.5,1.2,1.7,3.4,0.4,4.8l-16.5,19.8c-0.6,0.7-1.5,1.2-2.5,1.2C225.1,126.8,225,126.8,225,126.8z"/>
	</g>
</g>
</svg>
